<svg xmlns="http://www.w3.org/2000/svg" xmlns:xlink="http://www.w3.org/1999/xlink" id="Layer_1" width="100%" x="0" y="0" enable-background="new 0 0 942 282" version="1.1" viewBox="0 0 942 282" xml:space="preserve"><path fill="#FFF" stroke="none" d="M669.000000,283.000000 C446.000000,283.000000 223.500000,283.000000 1.000000,283.000000 C1.000000,189.000000 1.000000,95.000000 1.000000,1.000000 C315.000000,1.000000 629.000000,1.000000 943.000000,1.000000 C943.000000,95.000000 943.000000,189.000000 943.000000,283.000000 C851.833313,283.000000 760.666687,283.000000 669.000000,283.000000 M382.619781,175.937851 C389.910095,175.891068 397.200378,175.844299 405.361755,175.760712 C411.253021,175.531006 417.144318,175.301285 423.634857,175.637650 C431.050110,175.504639 438.465332,175.371628 446.829987,175.187408 C452.868195,175.072510 458.906372,174.957626 465.496735,175.490158 C471.026093,175.208801 476.555481,174.927444 482.925598,174.864960 C490.931732,174.858444 498.937897,174.851913 507.491669,175.486740 C510.481171,175.566254 513.470642,175.645767 517.336304,175.751801 C522.823486,175.799255 528.310730,175.846725 534.750549,175.962646 C539.289795,176.278198 543.825073,176.759506 548.369324,176.870560 C555.244751,177.038620 562.126465,176.948822 569.930115,176.917328 C573.951477,176.933914 577.972900,176.950485 582.572876,177.573486 C597.828796,177.694229 613.084595,177.825256 628.340759,177.894455 C628.894287,177.896957 629.450562,177.291412 630.940918,176.964371 C636.619995,176.934311 642.299011,176.904251 648.529907,177.515152 C663.610718,177.630081 678.691406,177.751419 693.772461,177.825500 C694.178162,177.827499 694.586426,177.318512 695.920837,177.022232 C699.938843,176.968765 703.956909,176.915298 708.523254,177.507355 C709.323975,177.669968 710.124573,177.973511 710.925476,177.974594 C731.047852,178.001923 751.170227,178.014252 771.292419,177.957687 C772.527100,177.954224 773.760132,177.362427 775.832886,177.025940 C781.553467,177.006683 787.274109,176.987411 793.573364,177.574417 C809.267822,177.706970 824.962219,177.860260 840.656921,177.912491 C841.465881,177.915176 842.277771,177.053207 843.937805,176.715775 C845.944519,176.724503 847.951294,176.733246 850.470886,177.426941 C854.597351,177.617462 858.731750,177.707565 862.847778,178.031082 C865.999573,178.278809 867.572510,177.131210 868.586487,173.987564 C875.871704,151.399841 883.378357,128.883621 890.764404,106.328217 C892.654297,100.556778 892.222046,100.013092 886.186646,100.008194 C865.688843,99.991562 845.191040,100.001862 824.693237,100.001823 C799.862610,100.001785 775.031189,99.907516 750.201965,100.093155 C746.000305,100.124573 744.695129,98.868744 744.917358,94.733727 C745.238892,88.751709 744.900696,82.737198 745.040344,76.741119 C745.105652,73.937080 744.089050,72.918625 741.272949,72.959030 C732.775574,73.080940 724.274353,73.077621 715.776917,72.960083 C713.010742,72.921822 711.876160,73.835449 711.960205,76.691490 C712.112000,81.853096 712.001709,87.022430 711.999939,92.188538 C711.997681,98.997940 711.997253,99.001816 705.349182,99.001862 C593.527954,99.002670 481.706696,98.998169 369.885437,99.034721 C367.764252,99.035416 365.482056,99.109764 363.557587,99.867508 C360.163544,101.203865 360.053314,104.210083 362.978027,107.937508 C362.978027,130.245880 362.978027,152.554260 362.978027,175.836472 C369.739410,175.836472 375.679504,175.836472 382.619781,175.937851 M168.335770,115.898911 C156.809708,104.750725 145.283646,93.602547 134.485260,83.158180 C113.408028,104.106277 92.938026,124.450874 74.559982,142.716324 C93.859085,163.464233 113.396828,184.468704 133.211594,205.770981 C140.618774,198.590912 147.132385,192.195663 153.739731,185.898743 C158.768555,181.106216 163.916367,176.438553 169.342178,172.319855 C180.737671,183.592453 192.133179,194.865051 203.291763,205.903290 C224.386108,185.239044 244.994858,165.050507 265.270569,145.188202 C244.048111,123.460457 223.765549,102.694992 203.410172,81.854980 C191.536789,93.674873 180.255188,104.905655 168.335770,115.898911 M109.783615,209.716980 C87.620407,187.920929 65.457199,166.124878 43.059559,144.098267 C68.986313,118.540550 94.503593,93.386459 119.687828,68.560684 C114.438110,63.624203 109.647774,59.119701 105.416992,55.141361 C75.923843,84.604111 45.929390,114.567650 15.587292,144.878464 C45.663651,174.305511 76.100548,204.085312 106.466164,233.795364 C110.318230,230.078918 115.293610,225.278702 120.330482,220.419159 C116.787323,216.821625 113.535271,213.519669 109.783615,209.716980 M286.364471,152.867020 C264.452667,175.845505 242.540848,198.824005 220.589645,221.843796 C223.345795,224.410095 227.884583,228.636261 232.669846,233.091919 C262.460114,203.898468 292.809296,174.157318 323.340118,144.238159 C292.608795,114.013550 262.270416,84.175377 231.845688,54.252319 C226.883759,58.791214 222.269028,63.012516 216.082626,68.671494 C242.642670,94.254936 268.751099,119.403366 295.093506,144.777176 C291.735138,147.877762 289.300903,150.125198 286.364471,152.867020 M201.081970,236.700775 C200.597839,238.202667 199.256317,240.564835 199.764359,241.071182 C204.066849,245.359222 208.706635,249.308838 212.896240,253.048553 C217.014175,248.879486 221.627914,244.208450 225.985870,239.796371 C221.662888,235.373337 217.074829,230.679092 211.509064,224.984512 C208.177109,228.749390 204.884583,232.469727 201.081970,236.700775 M112.051285,46.586769 C111.990746,47.554916 111.484940,48.957554 111.939339,49.423225 C115.976158,53.560158 120.182861,57.531311 124.669647,61.870705 C129.650406,57.135609 134.285645,52.729000 138.383682,48.833092 C133.474396,43.855846 128.983841,39.303116 124.633934,34.892990 C120.779457,38.459999 116.662041,42.270329 112.051285,46.586769 z" opacity="1"/><path fill="#F8F7F5" stroke="none" d="M630.005554,176.969238 C629.450562,177.291412 628.894287,177.896957 628.340759,177.894455 C613.084595,177.825256 597.828796,177.694229 582.560120,177.023712 C585.841492,175.401093 589.393921,174.799301 592.378540,173.162247 C599.705017,169.143585 602.980225,162.613724 603.251709,154.258057 C603.480835,147.205872 600.205994,142.443802 594.303101,139.411087 C591.238037,137.836395 587.775330,136.995193 584.440552,135.994904 C578.396851,134.181992 572.229858,132.733002 566.305786,130.600266 C564.762268,130.044571 563.012695,127.522507 563.017029,125.908073 C563.021545,124.239151 564.678772,121.969231 566.251526,121.019180 C571.830139,117.649330 578.001099,119.239449 582.220642,124.338303 C583.497070,125.880798 585.356995,127.715469 587.125122,127.923203 C591.511841,128.438599 595.999756,128.092590 600.350830,128.092590 C601.604614,120.689873 597.673096,113.147507 590.868469,109.584961 C579.507935,103.637154 567.745972,103.945625 556.108032,108.297150 C547.244995,111.611084 542.312988,119.952362 543.095093,128.646576 C543.850281,137.041382 550.251465,143.908264 559.233887,146.107010 C565.688171,147.686920 572.123596,149.348099 578.542847,151.065079 C581.565613,151.873566 583.612671,153.621368 583.169373,157.129089 C582.731689,160.592529 580.577393,162.479523 577.259094,162.872818 C571.360901,163.571884 566.004456,162.544189 561.931091,157.645920 C561.025452,156.556870 559.701172,155.143982 558.507385,155.082138 C553.152466,154.804825 547.775085,154.961380 542.111389,154.961380 C543.138367,164.156143 546.998413,170.601135 555.111267,173.611145 C559.547302,175.256958 564.361755,175.882767 569.005554,176.968567 C562.126465,176.948822 555.244751,177.038620 548.369324,176.870560 C543.825073,176.759506 539.289795,176.278198 534.388550,175.506302 C534.281311,160.762390 534.729797,146.474625 534.714294,132.187347 C534.705750,124.296806 533.584595,116.705315 526.271362,111.466255 C514.643677,103.136467 495.094086,102.835434 483.559479,111.413628 C477.990112,115.555481 474.798340,121.057686 475.346863,128.577988 C477.098694,128.661743 478.402252,128.768494 479.706573,128.778870 C485.970093,128.828629 492.039154,129.524918 496.627747,123.091400 C499.533203,119.017754 508.913055,119.630127 512.028320,123.528625 C513.706665,125.628899 514.365601,128.843445 514.544128,131.615784 C514.584900,132.248672 510.799591,133.525482 508.679016,133.825607 C502.283722,134.730774 495.789948,134.997681 489.427979,136.068436 C478.173523,137.962616 471.774414,145.760513 472.007904,156.743393 C472.172516,164.488754 475.838989,170.303329 482.084839,174.646103 C476.555481,174.927444 471.026093,175.208801 465.203613,174.712433 C464.890533,158.612228 464.983795,143.288437 464.807861,127.967728 C464.703522,118.882423 461.632629,111.222466 452.557434,107.502129 C443.450348,103.768738 434.748505,103.664589 427.159698,111.207901 C425.099976,113.255272 422.690918,114.951195 420.447845,116.803764 C409.981323,103.413780 400.182037,101.359520 388.568420,110.074005 C386.462646,111.776497 384.659973,113.341476 382.286926,115.401634 C381.986206,112.131638 381.768677,109.766212 381.514343,107.000496 C375.159515,107.000496 369.078339,107.000496 362.997192,107.000496 C360.053314,104.210083 360.163544,101.203865 363.557587,99.867508 C365.482056,99.109764 367.764252,99.035416 369.885437,99.034721 C481.706696,98.998169 593.527954,99.002670 705.349182,99.001862 C711.997253,99.001816 711.997681,98.997940 711.999939,92.188538 C712.001709,87.022430 712.112000,81.853096 711.960205,76.691490 C711.876160,73.835449 713.010742,72.921822 715.776917,72.960083 C724.274353,73.077621 732.775574,73.080940 741.272949,72.959030 C744.089050,72.918625 745.105652,73.937080 745.040344,76.741119 C744.900696,82.737198 745.238892,88.751709 744.917358,94.733727 C744.695129,98.868744 746.000305,100.124573 750.201965,100.093155 C775.031189,99.907516 799.862610,100.001785 824.693237,100.001823 C845.191040,100.001862 865.688843,99.991562 886.186646,100.008194 C892.222046,100.013092 892.654297,100.556778 890.764404,106.328217 C883.378357,128.883621 875.871704,151.399841 868.586487,173.987564 C867.572510,177.131210 865.999573,178.278809 862.847778,178.031082 C858.731750,177.707565 854.597351,177.617462 850.545654,176.860352 C852.779968,176.188797 854.945801,175.928101 857.097473,176.015930 C860.207642,176.142914 861.994080,174.898209 863.017944,171.888565 C869.979248,151.426514 877.015564,130.989716 884.117065,110.575851 C885.201294,107.458992 884.383972,106.177299 881.120239,106.216431 C877.455872,106.260368 873.787842,106.258759 870.125549,106.144112 C866.399597,106.027458 864.164612,107.702675 863.249634,111.295143 C862.182800,115.483879 861.089233,119.666557 859.944092,123.834488 C857.051392,134.362427 854.123169,144.880630 851.209229,155.402740 C849.560364,153.078888 848.750671,150.806213 848.118286,148.485229 C844.932129,136.790604 841.843140,125.069237 838.600647,113.390404 C837.772827,110.408958 837.163452,106.809410 833.049316,106.658600 C827.497681,106.455086 821.932983,106.608070 815.938599,106.608070 C816.593933,109.143799 816.998779,111.244591 817.677551,113.252800 C823.685791,131.028015 829.781494,148.773758 835.756531,166.560059 C837.158752,170.734207 838.631470,174.716660 843.088257,176.593811 C842.277771,177.053207 841.465881,177.915176 840.656921,177.912491 C824.962219,177.860260 809.267822,177.706970 793.550171,177.027191 C807.844971,172.608856 814.961121,165.397766 815.373596,154.161194 C807.499329,153.940201 799.707947,152.544083 793.391296,159.878738 C789.910645,163.920395 780.986877,163.083221 776.114929,159.669128 C771.943176,156.745697 770.307312,151.877502 771.911804,146.047546 C786.620728,146.047546 801.507629,146.047546 816.734375,146.047546 C817.567261,132.261078 815.533569,119.865524 804.309875,111.504921 C792.536255,102.734726 779.359436,103.184410 766.537231,109.300705 C750.415161,116.991005 746.939209,143.995239 753.037476,158.097427 C757.309814,167.976944 765.539978,173.203720 774.993896,177.044373 C773.760132,177.362427 772.527100,177.954224 771.292419,177.957687 C751.170227,178.014252 731.047852,178.001923 710.925476,177.974594 C710.124573,177.973511 709.323975,177.669968 708.470337,176.925781 C713.023621,173.895630 717.629822,171.447037 723.115479,168.530930 C721.316101,176.934998 726.566040,176.054871 731.333557,175.890457 C733.328247,175.821655 735.353394,175.672501 737.318970,175.920990 C741.684875,176.472961 743.029724,174.823013 742.998718,170.372513 C742.807312,142.914581 742.908081,115.454643 742.892944,87.995384 C742.892029,86.409592 742.726685,84.823898 742.623108,82.974976 C738.047791,82.974976 734.063660,82.935669 730.080566,82.984337 C724.324646,83.054649 723.067505,84.279915 723.021851,90.064697 C722.960754,97.811943 723.006714,105.560028 723.006714,114.188156 C719.831299,112.369087 717.371216,111.094215 715.047424,109.606422 C701.812805,101.132965 685.852173,105.359756 678.533569,119.163216 C674.325928,127.099251 673.424683,135.535721 673.841919,144.305359 C674.557434,159.343140 679.596191,171.524521 694.993469,177.047821 C694.586426,177.318512 694.178162,177.827499 693.772461,177.825500 C678.691406,177.751419 663.610718,177.630081 648.509033,176.939453 C652.729858,174.551666 657.368042,173.331284 661.133545,170.808411 C669.853149,164.966385 672.584290,153.044601 666.425171,145.557251 C663.263550,141.713821 658.183594,138.947327 653.430603,137.039139 C647.311768,134.582626 640.545105,133.782059 634.283752,131.614502 C632.189026,130.889328 629.527893,128.227280 629.422546,126.323578 C629.315308,124.384247 631.606506,121.509056 633.600342,120.412697 C638.834045,117.534744 644.255249,119.343765 648.116150,124.204155 C649.294983,125.688171 650.885010,127.700630 652.451721,127.861252 C657.168518,128.344833 661.966492,128.035645 667.011047,128.035645 C667.566101,119.395813 663.752075,113.573151 657.060730,109.983513 C644.064514,103.011612 630.874573,103.131020 618.161316,110.884613 C606.524536,117.981712 606.250610,135.530365 617.994873,142.524216 C622.825928,145.401169 628.908325,146.114761 634.307678,148.119095 C638.598206,149.711777 642.948364,151.384689 646.843750,153.732666 C650.693176,156.052948 650.148865,159.708099 646.125916,161.913010 C640.804382,164.829605 631.843872,162.872330 628.018311,158.094910 C627.039612,156.872726 625.687012,155.173660 624.418884,155.094635 C619.045288,154.759750 613.638733,154.952591 607.934021,154.952591 C608.690552,162.075348 611.218506,167.463287 616.592407,170.782471 C620.750854,173.350861 625.512207,174.943069 630.005554,176.969238 z" opacity="1"/><path fill="#9F67C5" stroke="none" d="M168.973572,116.136429 C180.255188,104.905655 191.536789,93.674873 203.410172,81.854980 C223.765549,102.694992 244.048111,123.460457 265.270569,145.188202 C244.994858,165.050507 224.386108,185.239044 203.291763,205.903290 C192.133179,194.865051 180.737671,183.592453 169.160950,171.815125 C168.979706,171.310410 168.953293,170.902924 169.230499,170.728973 C178.056091,161.824905 186.604477,153.094788 195.107864,144.410629 C186.152878,135.321686 177.567673,126.608055 168.984451,117.601128 C168.982147,116.917358 168.977859,116.526886 168.973572,116.136429 z" opacity="1"/><path fill="#779EC9" stroke="none" d="M168.953293,170.902924 C168.953293,170.902924 168.979706,171.310410 168.995483,171.512878 C163.916367,176.438553 158.768555,181.106216 153.739731,185.898743 C147.132385,192.195663 140.618774,198.590912 133.211594,205.770981 C113.396828,184.468704 93.859085,163.464233 74.559982,142.716324 C92.938026,124.450874 113.408028,104.106277 134.485260,83.158180 C145.283646,93.602547 156.809708,104.750725 168.654663,116.017670 C168.977859,116.526886 168.982147,116.917358 168.636078,117.646637 C160.129105,125.990021 151.914093,133.937439 143.922287,142.103317 C143.253983,142.786194 143.512573,145.501373 144.313934,146.323502 C152.410706,154.630066 160.710495,162.738708 168.953293,170.902924 z" opacity="1"/><path fill="#2B2D4B" stroke="none" d="M110.033417,209.967346 C113.535271,213.519669 116.787323,216.821625 120.330482,220.419159 C115.293610,225.278702 110.318230,230.078918 106.466164,233.795364 C76.100548,204.085312 45.663651,174.305511 15.587292,144.878464 C45.929390,114.567650 75.923843,84.604111 105.416992,55.141361 C109.647774,59.119701 114.438110,63.624203 119.687828,68.560684 C94.503593,93.386459 68.986313,118.540550 43.059559,144.098267 C65.457199,166.124878 87.620407,187.920929 110.033417,209.967346 z" opacity="1"/><path fill="#292A4A" stroke="none" d="M286.615540,152.619812 C289.300903,150.125198 291.735138,147.877762 295.093506,144.777176 C268.751099,119.403366 242.642670,94.254936 216.082626,68.671494 C222.269028,63.012516 226.883759,58.791214 231.845688,54.252319 C262.270416,84.175377 292.608795,114.013550 323.340118,144.238159 C292.809296,174.157318 262.460114,203.898468 232.669846,233.091919 C227.884583,228.636261 223.345795,224.410095 220.589645,221.843796 C242.540848,198.824005 264.452667,175.845505 286.615540,152.619812 z" opacity="1"/><path fill="#938FC5" stroke="none" d="M695.457153,177.035034 C679.596191,171.524521 674.557434,159.343140 673.841919,144.305359 C673.424683,135.535721 674.325928,127.099251 678.533569,119.163216 C685.852173,105.359756 701.812805,101.132965 715.047424,109.606422 C717.371216,111.094215 719.831299,112.369087 723.006714,114.188156 C723.006714,105.560028 722.960754,97.811943 723.021851,90.064697 C723.067505,84.279915 724.324646,83.054649 730.080566,82.984337 C734.063660,82.935669 738.047791,82.974976 742.623108,82.974976 C742.726685,84.823898 742.892029,86.409592 742.892944,87.995384 C742.908081,115.454643 742.807312,142.914581 742.998718,170.372513 C743.029724,174.823013 741.684875,176.472961 737.318970,175.920990 C735.353394,175.672501 733.328247,175.821655 731.333557,175.890457 C726.566040,176.054871 721.316101,176.934998 723.115479,168.530930 C717.629822,171.447037 713.023621,173.895630 708.196167,176.603027 C703.956909,176.915298 699.938843,176.968765 695.457153,177.035034 M719.184570,127.450928 C716.174927,123.782478 712.810547,120.344551 707.594421,121.441544 C701.442261,122.735390 696.222656,125.808960 695.065491,132.621674 C694.270020,137.305252 693.808716,142.183609 694.184082,146.896393 C694.781616,154.398514 700.946533,160.491379 707.418457,160.964035 C712.891418,161.363724 720.232605,155.610107 721.859985,149.231400 C723.714417,141.962387 723.694763,134.772064 719.184570,127.450928 z" opacity="1"/><path fill="#909EC9" stroke="none" d="M482.505219,174.755524 C475.838989,170.303329 472.172516,164.488754 472.007904,156.743393 C471.774414,145.760513 478.173523,137.962616 489.427979,136.068436 C495.789948,134.997681 502.283722,134.730774 508.679016,133.825607 C510.799591,133.525482 514.584900,132.248672 514.544128,131.615784 C514.365601,128.843445 513.706665,125.628899 512.028320,123.528625 C508.913055,119.630127 499.533203,119.017754 496.627747,123.091400 C492.039154,129.524918 485.970093,128.828629 479.706573,128.778870 C478.402252,128.768494 477.098694,128.661743 475.346863,128.577988 C474.798340,121.057686 477.990112,115.555481 483.559479,111.413628 C495.094086,102.835434 514.643677,103.136467 526.271362,111.466255 C533.584595,116.705315 534.705750,124.296806 534.714294,132.187347 C534.729797,146.474625 534.281311,160.762390 533.912231,175.472076 C528.310730,175.846725 522.823486,175.799255 516.751709,175.436279 C515.707703,172.931198 515.248291,170.741638 514.733093,168.285995 C511.869293,170.697693 509.406647,172.771545 506.944031,174.845398 C498.937897,174.851913 490.931732,174.858444 482.505219,174.755524 M512.914490,157.194519 C513.609558,154.696640 514.481873,152.227463 514.893555,149.683731 C515.019836,148.903397 513.821289,147.112396 513.336426,147.150375 C507.325836,147.621262 501.216461,147.861740 495.408752,149.287048 C493.580780,149.735657 491.195404,153.788666 491.550507,155.739563 C491.974762,158.070129 494.696960,160.817169 497.075928,161.791550 C502.867218,164.163528 508.008423,161.802704 512.914490,157.194519 z" opacity="1"/><path fill="#948BC3" stroke="none" d="M775.413391,177.035156 C765.539978,173.203720 757.309814,167.976944 753.037476,158.097427 C746.939209,143.995239 750.415161,116.991005 766.537231,109.300705 C779.359436,103.184410 792.536255,102.734726 804.309875,111.504921 C815.533569,119.865524 817.567261,132.261078 816.734375,146.047546 C801.507629,146.047546 786.620728,146.047546 771.911804,146.047546 C770.307312,151.877502 771.943176,156.745697 776.114929,159.669128 C780.986877,163.083221 789.910645,163.920395 793.391296,159.878738 C799.707947,152.544083 807.499329,153.940201 815.373596,154.161194 C814.961121,165.397766 807.844971,172.608856 793.260864,176.724060 C787.274109,176.987411 781.553467,177.006683 775.413391,177.035156 M778.597168,133.091080 C784.642456,133.091080 790.687744,133.091080 796.747314,133.091080 C796.352966,124.927193 791.286682,120.070992 783.969238,120.092979 C776.885742,120.114265 771.541748,125.339783 771.309265,133.091217 C773.417664,133.091217 775.524597,133.091217 778.597168,133.091080 z" opacity="1"/><path fill="#8FA2CB" stroke="none" d="M388.871521,109.936493 C400.182037,101.359520 409.981323,103.413780 420.447845,116.803764 C422.690918,114.951195 425.099976,113.255272 427.159698,111.207901 C434.748505,103.664589 443.450348,103.768738 452.557434,107.502129 C461.632629,111.222466 464.703522,118.882423 464.807861,127.967728 C464.983795,143.288437 464.890533,158.612228 464.927551,174.388733 C458.906372,174.957626 452.868195,175.072510 446.324158,174.724670 C445.587524,159.980545 445.612518,145.688293 445.006256,131.422867 C444.746033,125.299614 441.262268,122.283936 436.137573,121.953110 C429.315735,121.512741 425.734894,123.862625 424.080414,130.280258 C423.425964,132.818817 423.158203,135.517883 423.134064,138.147720 C423.021118,150.454941 423.054474,162.763504 423.035583,175.071564 C417.144318,175.301285 411.253021,175.531006 404.808685,175.338715 C404.203064,161.644196 404.178619,148.371490 404.088867,135.099213 C404.019623,124.865440 401.466797,122.164230 391.009705,120.600952 C390.236481,116.757362 392.860870,112.655869 388.871521,109.936493 z" opacity="1"/><path fill="#8F99C7" stroke="none" d="M569.467834,176.942947 C564.361755,175.882767 559.547302,175.256958 555.111267,173.611145 C546.998413,170.601135 543.138367,164.156143 542.111389,154.961380 C547.775085,154.961380 553.152466,154.804825 558.507385,155.082138 C559.701172,155.143982 561.025452,156.556870 561.931091,157.645920 C566.004456,162.544189 571.360901,163.571884 577.259094,162.872818 C580.577393,162.479523 582.731689,160.592529 583.169373,157.129089 C583.612671,153.621368 581.565613,151.873566 578.542847,151.065079 C572.123596,149.348099 565.688171,147.686920 559.233887,146.107010 C550.251465,143.908264 543.850281,137.041382 543.095093,128.646576 C542.312988,119.952362 547.244995,111.611084 556.108032,108.297150 C567.745972,103.945625 579.507935,103.637154 590.868469,109.584961 C597.673096,113.147507 601.604614,120.689873 600.350830,128.092590 C595.999756,128.092590 591.511841,128.438599 587.125122,127.923203 C585.356995,127.715469 583.497070,125.880798 582.220642,124.338303 C578.001099,119.239449 571.830139,117.649330 566.251526,121.019180 C564.678772,121.969231 563.021545,124.239151 563.017029,125.908073 C563.012695,127.522507 564.762268,130.044571 566.305786,130.600266 C572.229858,132.733002 578.396851,134.181992 584.440552,135.994904 C587.775330,136.995193 591.238037,137.836395 594.303101,139.411087 C600.205994,142.443802 603.480835,147.205872 603.251709,154.258057 C602.980225,162.613724 599.705017,169.143585 592.378540,173.162247 C589.393921,174.799301 585.841492,175.401093 582.270813,176.720490 C577.972900,176.950485 573.951477,176.933914 569.467834,176.942947 z" opacity="1"/><path fill="#9294C6" stroke="none" d="M630.473267,176.966797 C625.512207,174.943069 620.750854,173.350861 616.592407,170.782471 C611.218506,167.463287 608.690552,162.075348 607.934021,154.952591 C613.638733,154.952591 619.045288,154.759750 624.418884,155.094635 C625.687012,155.173660 627.039612,156.872726 628.018311,158.094910 C631.843872,162.872330 640.804382,164.829605 646.125916,161.913010 C650.148865,159.708099 650.693176,156.052948 646.843750,153.732666 C642.948364,151.384689 638.598206,149.711777 634.307678,148.119095 C628.908325,146.114761 622.825928,145.401169 617.994873,142.524216 C606.250610,135.530365 606.524536,117.981712 618.161316,110.884613 C630.874573,103.131020 644.064514,103.011612 657.060730,109.983513 C663.752075,113.573151 667.566101,119.395813 667.011047,128.035645 C661.966492,128.035645 657.168518,128.344833 652.451721,127.861252 C650.885010,127.700630 649.294983,125.688171 648.116150,124.204155 C644.255249,119.343765 638.834045,117.534744 633.600342,120.412697 C631.606506,121.509056 629.315308,124.384247 629.422546,126.323578 C629.527893,128.227280 632.189026,130.889328 634.283752,131.614502 C640.545105,133.782059 647.311768,134.582626 653.430603,137.039139 C658.183594,138.947327 663.263550,141.713821 666.425171,145.557251 C672.584290,153.044601 669.853149,164.966385 661.133545,170.808411 C657.368042,173.331284 652.729858,174.551666 648.233093,176.618958 C642.299011,176.904251 636.619995,176.934311 630.473267,176.966797 z" opacity="1"/><path fill="#9687C1" stroke="none" d="M843.513062,176.654785 C838.631470,174.716660 837.158752,170.734207 835.756531,166.560059 C829.781494,148.773758 823.685791,131.028015 817.677551,113.252800 C816.998779,111.244591 816.593933,109.143799 815.938599,106.608070 C821.932983,106.608070 827.497681,106.455086 833.049316,106.658600 C837.163452,106.809410 837.772827,110.408958 838.600647,113.390404 C841.843140,125.069237 844.932129,136.790604 848.118286,148.485229 C848.750671,150.806213 849.560364,153.078888 851.209229,155.402740 C854.123169,144.880630 857.051392,134.362427 859.944092,123.834488 C861.089233,119.666557 862.182800,115.483879 863.249634,111.295143 C864.164612,107.702675 866.399597,106.027458 870.125549,106.144112 C873.787842,106.258759 877.455872,106.260368 881.120239,106.216431 C884.383972,106.177299 885.201294,107.458992 884.117065,110.575851 C877.015564,130.989716 869.979248,151.426514 863.017944,171.888565 C861.994080,174.898209 860.207642,176.142914 857.097473,176.015930 C854.945801,175.928101 852.779968,176.188797 850.289185,176.517868 C847.951294,176.733246 845.944519,176.724503 843.513062,176.654785 z" opacity="1"/><path fill="#8DA5CD" stroke="none" d="M388.568420,110.074005 C392.860870,112.655869 390.236481,116.757362 390.803040,120.862473 C383.746185,124.513138 382.117554,130.392212 382.024353,137.039566 C381.843048,149.971222 381.749512,162.904099 381.619629,175.836472 C375.679504,175.836472 369.739410,175.836472 362.978027,175.836472 C362.978027,152.554260 362.978027,130.245880 362.987610,107.469002 C369.078339,107.000496 375.159515,107.000496 381.514343,107.000496 C381.768677,109.766212 381.986206,112.131638 382.286926,115.401634 C384.659973,113.341476 386.462646,111.776497 388.568420,110.074005 z" opacity="1"/><path fill="#F7F6F5" stroke="none" d="M423.335205,175.354614 C423.054474,162.763504 423.021118,150.454941 423.134064,138.147720 C423.158203,135.517883 423.425964,132.818817 424.080414,130.280258 C425.734894,123.862625 429.315735,121.512741 436.137573,121.953110 C441.262268,122.283936 444.746033,125.299614 445.006256,131.422867 C445.612518,145.688293 445.587524,159.980545 445.849457,174.750275 C438.465332,175.371628 431.050110,175.504639 423.335205,175.354614 z" opacity="1"/><path fill="#F8F8F5" stroke="none" d="M382.119690,175.887161 C381.749512,162.904099 381.843048,149.971222 382.024353,137.039566 C382.117554,130.392212 383.746185,124.513138 390.806946,121.313782 C401.466797,122.164230 404.019623,124.865440 404.088867,135.099213 C404.178619,148.371490 404.203064,161.644196 404.373169,175.357117 C397.200378,175.844299 389.910095,175.891068 382.119690,175.887161 z" opacity="1"/><path fill="#72ACD3" stroke="none" d="M201.337006,236.445419 C204.884583,232.469727 208.177109,228.749390 211.509064,224.984512 C217.074829,230.679092 221.662888,235.373337 225.985870,239.796371 C221.627914,244.208450 217.014175,248.879486 212.896240,253.048553 C208.706635,249.308838 204.066849,245.359222 199.764359,241.071182 C199.256317,240.564835 200.597839,238.202667 201.337006,236.445419 z" opacity="1"/><path fill="#A270C3" stroke="none" d="M112.297958,46.333717 C116.662041,42.270329 120.779457,38.459999 124.633934,34.892990 C128.983841,39.303116 133.474396,43.855846 138.383682,48.833092 C134.285645,52.729000 129.650406,57.135609 124.669647,61.870705 C120.182861,57.531311 115.976158,53.560158 111.939339,49.423225 C111.484940,48.957554 111.990746,47.554916 112.297958,46.333717 z" opacity="1"/><path fill="#EDEEF1" stroke="none" d="M507.217834,175.166077 C509.406647,172.771545 511.869293,170.697693 514.733093,168.285995 C515.248291,170.741638 515.707703,172.931198 516.313599,175.423035 C513.470642,175.645767 510.481171,175.566254 507.217834,175.166077 z" opacity="1"/><path fill="#39356D" stroke="none" d="M169.230499,170.728973 C160.710495,162.738708 152.410706,154.630066 144.313934,146.323502 C143.512573,145.501373 143.253983,142.786194 143.922287,142.103317 C151.914093,133.937439 160.129105,125.990021 168.634094,117.939941 C177.567673,126.608055 186.152878,135.321686 195.107864,144.410629 C186.604477,153.094788 178.056091,161.824905 169.230499,170.728973 z" opacity="1"/><path fill="#F7F6F4" stroke="none" d="M719.374390,127.771919 C723.694763,134.772064 723.714417,141.962387 721.859985,149.231400 C720.232605,155.610107 712.891418,161.363724 707.418457,160.964035 C700.946533,160.491379 694.781616,154.398514 694.184082,146.896393 C693.808716,142.183609 694.270020,137.305252 695.065491,132.621674 C696.222656,125.808960 701.442261,122.735390 707.594421,121.441544 C712.810547,120.344551 716.174927,123.782478 719.374390,127.771919 z" opacity="1"/><path fill="#F5F4F3" stroke="none" d="M512.686279,157.501221 C508.008423,161.802704 502.867218,164.163528 497.075928,161.791550 C494.696960,160.817169 491.974762,158.070129 491.550507,155.739563 C491.195404,153.788666 493.580780,149.735657 495.408752,149.287048 C501.216461,147.861740 507.325836,147.621262 513.336426,147.150375 C513.821289,147.112396 515.019836,148.903397 514.893555,149.683731 C514.481873,152.227463 513.609558,154.696640 512.686279,157.501221 z" opacity="1"/><path fill="#F4F3F2" stroke="none" d="M778.114380,133.091156 C775.524597,133.091217 773.417664,133.091217 771.309265,133.091217 C771.541748,125.339783 776.885742,120.114265 783.969238,120.092979 C791.286682,120.070992 796.352966,124.927193 796.747314,133.091080 C790.687744,133.091080 784.642456,133.091080 778.114380,133.091156 z" opacity="1"/></svg>