<svg xmlns="http://www.w3.org/2000/svg" xmlns:xlink="http://www.w3.org/1999/xlink" width="100%" version="1.1" viewBox="82 130 568 415" xml:space="preserve"><path fill="#FFF" stroke="none" d="M959.000000,673.000000 C639.369019,673.000000 320.238068,673.000000 1.053562,673.000000 C1.053562,449.060791 1.053562,225.121536 1.053562,1.091153 C520.547729,1.091153 1040.095581,1.091153 1559.821655,1.091153 C1559.821655,224.999893 1559.821655,448.999939 1559.821655,673.000000 C1359.787964,673.000000 1159.644043,673.000000 959.000000,673.000000 M528.549194,353.928589 C528.732056,353.631775 528.914917,353.334961 529.022522,353.023071 C529.022522,353.023071 529.039429,353.097900 529.550049,352.929657 C529.732971,352.632690 529.915833,352.335724 530.020264,352.053040 C530.020264,352.053040 530.071350,352.114227 530.740234,351.977417 C534.790039,348.152008 538.839844,344.326630 543.014221,340.383545 C541.918579,339.121887 541.320801,338.347351 540.636780,337.658447 C515.472656,312.314026 490.304596,286.973450 465.110565,261.658752 C464.328461,260.872925 463.266327,260.365784 462.237976,259.776459 C462.237976,259.776459 462.272766,259.674286 462.210327,259.065857 C461.581055,258.619568 460.951782,258.173248 460.216217,257.757996 C460.216217,257.757996 460.272400,257.662598 460.188599,257.012268 C449.618835,246.771652 439.049042,236.531036 428.156982,225.978165 C424.315643,230.227402 420.031311,234.966644 415.847473,239.905594 C415.847473,239.905594 415.702942,239.735046 415.104309,239.804428 C414.408936,240.538239 413.713531,241.272064 412.426422,242.308487 C411.598389,243.123413 410.762878,243.930893 409.943481,244.754379 C394.967804,259.804199 379.994049,274.855927 364.513611,289.490417 C350.822021,275.674500 337.138733,261.850372 323.420013,248.061432 C322.514343,247.151154 321.338776,246.509415 320.218597,245.745712 C320.218597,245.745712 320.207275,245.814941 320.114532,245.272491 C319.804901,245.112564 319.495300,244.952637 319.263000,244.777695 C319.263000,244.777695 319.265472,244.698975 319.160614,244.071152 C318.209259,243.291321 317.257935,242.511490 316.133362,241.850891 C316.133362,241.850891 316.267212,241.688705 316.148254,241.041595 C310.951538,236.256561 305.754791,231.471527 300.433044,226.571365 C300.381134,226.615372 299.850861,227.003098 299.392365,227.462479 C279.442200,247.451096 259.492798,267.440521 239.569717,287.456085 C238.533524,288.497101 237.728302,289.768005 236.239594,291.244873 C224.150711,303.465485 212.061844,315.686127 199.373032,328.210724 C195.471161,332.183838 191.569275,336.156921 186.740906,341.073425 C192.226868,346.135864 197.359161,350.589630 202.171951,355.365356 C217.462601,370.538269 232.634109,385.831207 248.219864,401.636505 C251.130447,404.427490 254.041016,407.218475 257.215057,410.576111 C258.142029,411.393463 259.069000,412.210815 260.292572,413.620270 C263.486145,416.762115 266.679718,419.903961 270.152039,423.613007 C271.099579,424.421295 272.047089,425.229584 273.303558,426.620056 C275.820953,429.095978 278.338379,431.571899 281.067017,434.692749 C287.986755,441.131226 294.906494,447.569702 300.901154,453.147430 C321.872223,432.775482 343.447418,411.816620 365.619843,391.179321 C372.071838,397.470245 378.523834,403.761169 384.998199,409.999908 C384.998199,409.999908 384.947174,410.024811 385.241211,410.615631 C387.142822,412.439362 389.044403,414.263092 390.989227,416.010529 C390.989227,416.010529 390.913086,416.054077 391.185883,416.666107 C394.432892,419.857147 397.679932,423.048187 401.178680,426.760742 C402.028442,427.535919 402.878235,428.311096 404.009186,429.709686 C412.443542,437.895477 420.877899,446.081238 429.749969,454.691803 C432.825134,451.225830 435.985168,447.664215 439.087158,444.043854 C439.087158,444.043854 439.055115,444.119995 439.575806,443.959747 C439.756226,443.656921 439.936646,443.354126 440.037109,443.038574 C440.037109,443.038574 440.053467,443.117859 440.573395,442.956207 C440.753204,442.653290 440.933014,442.350372 441.035583,442.030762 C441.035583,442.030762 441.043365,442.109406 441.585144,441.944458 C441.809387,441.646973 442.033630,441.349487 442.732727,440.815125 C443.170502,440.270905 443.608276,439.726654 444.602570,438.889923 C445.433746,437.967224 446.264893,437.044556 447.710754,435.781281 C447.873962,435.613220 448.037170,435.445190 448.298553,435.382080 C448.298553,435.382080 448.306213,435.178345 448.763977,434.792694 C448.870636,434.624084 448.977325,434.455505 449.714661,434.015991 C454.374268,429.308319 459.021454,424.588226 463.695770,419.895203 C479.248871,404.279877 494.823547,388.685913 510.346191,373.040375 C511.465851,371.911835 512.233521,370.434113 513.104919,369.058105 C513.104919,369.058105 513.071228,369.136414 513.584106,368.965271 C513.767883,368.666473 513.951660,368.367645 514.051147,368.053619 C514.051147,368.053619 514.071655,368.136780 514.584106,367.965088 C514.766968,367.665771 514.949829,367.366455 515.048584,367.051575 C515.048584,367.051575 515.070190,367.134277 515.583313,366.964142 C515.765869,366.664795 515.948364,366.365417 516.047119,366.049683 C516.047119,366.049683 516.068970,366.132233 516.582092,365.962555 C516.763977,365.662903 516.945923,365.363251 517.044495,365.046814 C517.044495,365.046814 517.066406,365.128906 517.579834,364.960083 C517.761841,364.660645 517.943787,364.361206 518.043091,364.044983 C518.043091,364.044983 518.064331,364.126678 518.577637,363.957855 C518.759399,363.658386 518.941223,363.358917 519.040955,363.042480 C519.040955,363.042480 519.061829,363.123657 519.575012,362.954803 C519.756470,362.655243 519.937866,362.355682 520.038147,362.039429 C520.038147,362.039429 520.058289,362.119720 520.571106,361.950958 C520.752441,361.651611 520.933838,361.352234 521.035156,361.036102 C521.035156,361.036102 521.054932,361.115448 521.567505,360.946381 C521.748169,360.646667 521.928833,360.346954 522.031006,360.032013 C522.031006,360.032013 522.049255,360.109833 522.561646,359.941956 C522.742188,359.642700 522.922668,359.343445 523.026062,359.027100 C523.026062,359.027100 523.045959,359.103516 523.559082,358.937531 C523.739685,358.638489 523.920288,358.339447 524.024963,358.024689 C524.024963,358.024689 524.042053,358.100403 524.550964,357.929443 C524.732483,357.632324 524.913940,357.335175 525.020813,357.021423 C525.020813,357.021423 525.039490,357.095612 525.549438,356.927826 C525.731567,356.631073 525.913757,356.334320 526.021118,356.021606 C526.021118,356.021606 526.038818,356.096008 526.548584,355.927399 C526.731018,355.630737 526.913513,355.334076 527.021240,355.021912 C527.021240,355.021912 527.038757,355.096191 527.548706,354.927521 C527.731323,354.630859 527.914001,354.334167 528.021667,354.022369 C528.021667,354.022369 528.038879,354.096863 528.549194,353.928589 M273.266144,149.866867 C273.110748,150.187546 272.955322,150.508240 272.925903,150.846695 C272.925903,150.846695 272.834839,150.757843 272.221008,150.740097 C271.791840,151.156906 271.362640,151.573700 270.385956,152.250275 C269.589020,153.149048 268.792053,154.047821 267.397278,155.251724 C264.329956,158.001328 261.262604,160.750946 258.016357,163.660950 C267.703979,173.051651 276.559082,181.635330 284.331207,189.169220 C293.042938,180.737991 302.032349,172.038010 311.043304,163.317154 C302.504242,154.988419 293.737946,146.438095 284.772095,137.693130 C284.303223,138.263382 283.599548,139.119156 282.469116,140.149292 C282.201508,140.334656 282.037964,140.587387 281.441193,141.214584 C281.213287,141.755112 280.985352,142.295624 280.888184,142.919952 C280.888184,142.919952 280.808319,142.786774 280.239380,142.839676 C280.089722,143.164764 279.940033,143.489853 280.006683,143.903519 C280.006683,143.903519 279.804779,143.785416 279.236542,143.837952 C279.087402,144.162643 278.938293,144.487320 279.010315,144.920273 C279.010315,144.920273 278.803162,144.786652 278.236633,144.841690 C278.088013,145.167236 277.939362,145.492783 277.778259,145.734833 C277.778259,145.734833 277.693878,145.731720 277.090912,145.824692 C276.639404,146.456848 276.187897,147.089005 275.745880,147.804169 C275.745880,147.804169 275.829254,147.798508 275.268494,147.876099 C275.112457,148.197525 274.956421,148.518951 274.956085,148.927887 C274.956085,148.927887 274.833435,148.798050 274.271271,148.875488 C274.114624,149.197632 273.957977,149.519775 273.957062,149.912994 C273.957062,149.912994 273.832855,149.795151 273.266144,149.866867 M558.872192,303.139618 C558.872192,303.139618 558.694641,303.180237 558.898132,303.708099 C559.207520,303.909698 559.516846,304.111267 559.851318,304.174225 C559.851318,304.174225 559.718323,304.220703 559.983154,304.834351 C561.946594,306.743500 563.910034,308.652618 566.131531,311.133423 C575.794617,320.915039 585.457703,330.696655 596.737854,342.115143 C549.415833,388.606934 502.504028,434.695648 456.494843,479.897614 C465.433533,489.324982 473.869263,498.221924 481.090790,505.838257 C537.063416,450.998657 592.971008,396.222748 649.693176,340.648773 C592.500366,284.365692 536.406372,229.163864 481.370911,175.003769 C473.278687,182.460815 464.358978,190.680359 455.178070,199.140579 C456.883301,200.958740 458.193970,202.424500 459.576294,203.819214 C469.663788,213.997040 479.745483,224.180710 489.867218,234.324371 C510.098480,254.599457 530.354187,274.850159 550.881104,295.668762 C551.221558,295.899445 551.561951,296.130157 551.949890,296.756836 C552.091248,297.026764 552.313354,297.145142 552.890686,297.670441 C553.228149,297.903320 553.565613,298.136169 554.093811,298.934814 C555.259094,299.995300 556.424316,301.055786 557.859436,302.661163 C558.190857,302.881073 558.522339,303.100983 558.872192,303.139618 M225.271896,196.966248 C221.073288,201.276169 216.874680,205.586075 212.071442,210.138138 C168.971024,253.402542 125.870590,296.666931 82.449142,340.253571 C138.338348,396.593842 193.667892,452.369904 249.148865,508.298645 C258.311310,498.952271 266.901581,490.189514 276.686310,480.208344 C229.503326,433.889618 182.327560,387.577972 134.228943,340.360382 C182.119370,293.154663 229.078583,246.866867 276.224396,200.395126 C266.827362,190.907013 258.425568,182.423767 249.421051,173.413834 C248.833969,173.907730 248.246902,174.401627 247.067139,175.140442 C245.004959,177.302078 242.942780,179.463715 240.256912,181.910248 C238.367569,183.899597 236.478226,185.888947 233.997696,188.131607 C231.297974,190.983337 228.598251,193.835068 225.271896,196.966248 M426.123383,509.623047 C423.735809,512.066650 421.348267,514.510315 419.669525,516.228455 C428.964996,525.717468 437.728027,534.662964 445.950195,543.056335 C454.752960,534.283691 463.659271,525.407837 472.652466,516.445435 C464.209045,507.920074 455.478027,499.104340 446.213440,489.749847 C439.557953,496.330811 433.089813,502.726471 426.123383,509.623047 z z" opacity="1"/><path fill="#6C9FCE" stroke="none" d="M280.855774,434.047821 C278.338379,431.571899 275.820953,429.095978 273.147400,425.947418 C271.951935,424.531769 270.912628,423.788788 269.873322,423.045776 C266.679718,419.903961 263.486145,416.762115 260.142120,412.947632 C258.978302,411.519806 257.964966,410.764618 256.951599,410.009430 C254.041016,407.218475 251.130447,404.427490 248.304001,401.178894 C247.437027,399.161713 246.747391,397.342499 245.495377,396.081757 C228.244324,378.710754 210.965637,361.366241 193.555649,344.154968 C190.767746,341.398895 190.719086,339.621735 193.497208,336.819061 C196.052338,334.241364 197.844620,330.907501 199.972961,327.906738 C212.061844,315.686127 224.150711,303.465485 236.888031,291.086243 C239.081299,289.727020 240.772919,288.673798 242.148682,287.303497 C259.707489,269.814240 277.219757,252.278290 294.746674,234.757034 C301.004761,228.500961 300.908783,228.608887 307.206757,234.606323 C309.969574,237.237320 313.231781,239.343964 316.267212,241.688705 C316.267212,241.688705 316.133362,241.850891 316.143555,242.164276 C317.190979,243.218094 318.228210,243.958527 319.265472,244.698975 C319.265472,244.698975 319.263000,244.777695 319.273102,245.055267 C319.591217,245.493530 319.899261,245.654236 320.207275,245.814941 C320.207275,245.814941 320.218597,245.745712 320.180603,246.108154 C321.184753,247.901276 322.062378,249.495224 323.294678,250.737244 C334.792511,262.325714 346.432098,273.775116 357.813721,285.475708 C359.737885,287.453857 360.627136,290.438721 361.848022,293.259399 C361.013794,294.284332 360.338287,295.020325 359.636688,295.730560 C346.764709,308.761017 333.871185,321.770355 321.024078,334.825287 C315.768250,340.166138 315.838043,340.185760 320.920074,345.302979 C326.903809,351.328125 332.906250,357.337097 338.778595,363.469849 C346.587433,371.624908 354.278442,379.892822 362.015625,388.487671 C361.057556,390.691925 360.469147,392.876465 359.090820,394.291626 C350.405365,403.208832 341.544464,411.955139 332.741608,420.758026 C323.785614,429.714020 314.712097,438.556946 305.935150,447.685120 C302.686829,451.063416 299.895081,451.214905 296.690338,448.118561 C293.814423,445.339874 291.104492,442.382019 288.136658,439.708252 C285.858704,437.656036 283.293335,435.922882 280.855774,434.047821 z" opacity="1"/><path fill="#A964CD" stroke="none" d="M444.046082,439.182465 C443.608276,439.726654 443.170502,440.270905 442.217773,441.011108 C441.482971,441.507874 441.263153,441.808624 441.043335,442.109406 C441.043365,442.109406 441.035583,442.030762 440.822205,442.131348 C440.423706,442.527252 440.238586,442.822540 440.053467,443.117859 C440.053467,443.117859 440.037109,443.038574 439.824188,443.135956 C439.425873,443.528900 439.240509,443.824432 439.055115,444.119995 C439.055115,444.119995 439.087158,444.043854 438.756287,444.060822 C436.774048,445.391998 434.992706,446.574585 433.499451,448.048981 C430.744232,450.769470 428.319824,451.751648 425.213593,448.301788 C421.797241,444.507568 418.055389,440.981659 414.244415,437.574829 C410.890106,434.576233 407.244781,431.903137 403.727997,429.086273 C402.878235,428.311096 402.028442,427.535919 401.078033,426.115662 C399.209534,420.635681 396.237244,417.088043 390.913086,416.054077 C390.913086,416.054077 390.989227,416.010529 390.986969,415.670898 C390.378479,411.962463 388.560822,409.971924 384.947174,410.024811 C384.947174,410.024811 384.998199,409.999908 384.997253,409.656311 C384.106506,407.820801 383.441254,406.119904 382.284180,404.876801 C379.040405,401.392059 375.313690,398.322449 372.336029,394.637726 C370.655365,392.558044 370.075562,389.588715 369.146271,386.720276 C384.332977,371.196411 399.373322,355.972412 414.720093,340.438232 C412.634613,338.256836 410.956726,336.459839 409.234222,334.706635 C395.840149,321.074249 382.437469,307.450348 369.027588,293.434174 C370.611694,289.933685 371.581696,286.221039 373.904266,283.812866 C385.987305,271.284210 398.437134,259.109985 410.690491,246.744186 C412.030518,245.391800 412.929901,243.602753 414.368164,241.960205 C415.036072,241.181152 415.369507,240.458099 415.702942,239.735046 C415.702942,239.735046 415.847473,239.905594 416.160217,239.883209 C419.084351,237.635513 421.802032,235.521881 424.283966,233.160492 C428.790039,228.873230 429.262146,228.785553 433.539246,233.045822 C440.958313,240.435715 448.307709,247.896500 455.803558,255.207352 C456.976074,256.350891 458.767273,256.860077 460.272400,257.662598 C460.272400,257.662598 460.216217,257.757996 460.194824,258.105743 C460.873199,258.860443 461.572968,259.267365 462.272766,259.674286 C462.272766,259.674286 462.237976,259.776459 462.194763,260.115173 C463.192047,261.892670 464.066925,263.494293 465.297668,264.746063 C488.562012,288.407684 511.870667,312.025787 535.163940,335.658997 C539.237976,339.792511 539.112732,341.159790 535.003357,345.565765 C533.149780,347.553101 531.702820,349.919678 530.071350,352.114227 C530.071350,352.114227 530.020264,352.053040 529.812012,352.141113 C529.415588,352.518738 529.227478,352.808319 529.039429,353.097900 C529.039429,353.097900 529.022522,353.023071 528.812866,353.125885 C528.415039,353.518097 528.226990,353.807465 528.038879,354.096863 C528.038879,354.096863 528.021667,354.022369 527.812134,354.125366 C527.414612,354.517639 527.226685,354.806915 527.038818,355.096191 C527.038757,355.096191 527.021240,355.021912 526.811646,355.125061 C526.414307,355.517487 526.226562,355.806763 526.038818,356.096008 C526.038818,356.096008 526.021118,356.021606 525.811523,356.124878 C525.414490,356.517303 525.226990,356.806458 525.039490,357.095612 C525.039490,357.095612 525.020813,357.021423 524.811157,357.125366 C524.415039,357.519684 524.228577,357.810059 524.042114,358.100403 C524.042053,358.100403 524.024963,358.024689 523.815063,358.127808 C523.418762,358.521790 523.232361,358.812653 523.045959,359.103516 C523.045959,359.103516 523.026062,359.027100 522.815857,359.129944 C522.420166,359.525146 522.234680,359.817474 522.049194,360.109802 C522.049255,360.109833 522.031006,360.032013 521.820374,360.133484 C521.424805,360.528442 521.239868,360.821960 521.054932,361.115448 C521.054932,361.115448 521.035156,361.036102 520.823853,361.136414 C520.427795,361.531036 520.243042,361.825378 520.058289,362.119720 C520.058289,362.119720 520.038147,362.039429 519.826538,362.138916 C519.430603,362.533478 519.246216,362.828552 519.061829,363.123657 C519.061829,363.123657 519.040955,363.042480 518.829102,363.141205 C518.432922,363.535522 518.248657,363.831085 518.064331,364.126678 C518.064331,364.126678 518.043091,364.044983 517.831055,364.143005 C517.434753,364.537018 517.250610,364.832947 517.066406,365.128906 C517.066406,365.128906 517.044495,365.046814 516.832275,365.144531 C516.436340,365.538910 516.252686,365.835571 516.068970,366.132263 C516.068970,366.132233 516.047119,366.049683 515.834473,366.146484 C515.437927,366.540283 515.254089,366.837280 515.070190,367.134277 C515.070190,367.134277 515.048584,367.051575 514.835815,367.148071 C514.439270,367.541962 514.255493,367.839386 514.071655,368.136780 C514.071655,368.136780 514.051147,368.053619 513.838013,368.149292 C513.440369,368.542114 513.255798,368.839264 513.071228,369.136414 C513.071228,369.136414 513.104919,369.058105 512.775513,369.075348 C511.490356,369.705200 510.386169,370.168915 509.600677,370.952240 C490.334686,390.165375 471.072693,409.382904 451.926086,428.714630 C450.528290,430.125946 450.010742,432.409088 449.083984,434.286896 C448.977325,434.455505 448.870636,434.624084 448.526917,435.007874 C448.289825,435.223083 448.200348,435.277130 448.200348,435.277130 C448.037170,435.445190 447.873962,435.613220 447.202393,435.682434 C445.811401,436.783203 444.928741,437.982849 444.046082,439.182465 z" opacity="1"/><path fill="#252749" stroke="none" d="M552.616150,297.112000 C552.313354,297.145142 552.091248,297.026764 551.812378,296.257996 C551.316467,295.543060 550.958069,295.327026 550.599731,295.110962 C530.354187,274.850159 510.098480,254.599457 489.867218,234.324371 C479.745483,224.180710 469.663788,213.997040 459.576294,203.819214 C458.193970,202.424500 456.883301,200.958740 455.178070,199.140579 C464.358978,190.680359 473.278687,182.460815 481.370911,175.003769 C536.406372,229.163864 592.500366,284.365692 649.693176,340.648773 C592.971008,396.222748 537.063416,450.998657 481.090790,505.838257 C473.869263,498.221924 465.433533,489.324982 456.494843,479.897614 C502.504028,434.695648 549.415833,388.606934 596.737854,342.115143 C585.457703,330.696655 575.794617,320.915039 566.012695,310.462250 C563.835327,307.934296 561.776794,306.077515 559.718323,304.220703 C559.718323,304.220703 559.851318,304.174225 559.767456,303.956360 C559.353943,303.552399 559.024292,303.366302 558.694641,303.180237 C558.694641,303.180237 558.872192,303.139618 558.765015,302.929504 C558.301758,302.518372 557.945618,302.317322 557.589539,302.116272 C556.424316,301.055786 555.259094,299.995300 553.886963,298.351318 C553.325439,297.549255 552.970764,297.330627 552.616150,297.112000 z" opacity="1"/><path fill="#252849" stroke="none" d="M240.880615,181.625336 C242.942780,179.463715 245.004959,177.302078 247.707031,175.026184 C248.905869,174.588150 249.464813,174.264343 250.023743,173.940521 C258.425568,182.423767 266.827362,190.907013 276.224396,200.395126 C229.078583,246.866867 182.119370,293.154663 134.228943,340.360382 C182.327560,387.577972 229.503326,433.889618 276.686310,480.208344 C266.901581,490.189514 258.311310,498.952271 249.148865,508.298645 C193.667892,452.369904 138.338348,396.593842 82.449142,340.253571 C125.870590,296.666931 168.971024,253.402542 212.739487,210.022308 C217.571198,205.499924 221.734863,201.093353 225.898529,196.686798 C228.598251,193.835068 231.297974,190.983337 234.669846,188.016724 C237.188202,185.809677 239.034393,183.717499 240.880615,181.625336 z" opacity="1"/><path fill="#57ACD6" stroke="none" d="M426.372528,509.372589 C433.089813,502.726471 439.557953,496.330811 446.213440,489.749847 C455.478027,499.104340 464.209045,507.920074 472.652466,516.445435 C463.659271,525.407837 454.752960,534.283691 445.950195,543.056335 C437.728027,534.662964 428.964996,525.717468 419.669525,516.228455 C421.348267,514.510315 423.735809,512.066650 426.372528,509.372589 z" opacity="1"/><path fill="#A966C8" stroke="none" d="M281.978516,140.907440 C282.037964,140.587387 282.201508,140.334656 283.055908,140.078461 C284.288177,140.133728 285.153503,140.034958 285.546478,140.419235 C292.792847,147.505341 300.066437,154.569260 307.063385,161.896561 C307.815643,162.684341 307.529999,165.675476 306.639191,166.623810 C300.722290,172.922760 294.644928,179.091705 288.274048,184.925354 C287.048462,186.047577 283.402069,186.481018 282.388580,185.561386 C275.993164,179.758133 269.995178,173.513351 263.932587,167.348801 C261.814575,165.195175 262.000854,163.257812 264.308716,161.011307 C265.950104,159.413574 266.794830,156.997452 267.995087,154.946594 C268.792053,154.047821 269.589020,153.149048 270.978271,152.104019 C271.992004,151.557785 272.413422,151.157806 272.834839,150.757843 C272.834839,150.757843 272.925903,150.846695 273.132751,150.783936 C273.504059,150.412491 273.668457,150.103821 273.832855,149.795151 C273.832855,149.795151 273.957062,149.912994 274.148254,149.818970 C274.504089,149.415985 274.668762,149.107025 274.833435,148.798050 C274.833435,148.798050 274.956085,148.927887 275.147125,148.826309 C275.501862,148.415985 275.665558,148.107254 275.829254,147.798508 C275.829254,147.798508 275.745880,147.804169 276.104828,147.820160 C276.873810,147.134659 277.283844,146.433197 277.693878,145.731720 C277.693878,145.731720 277.778259,145.734833 278.055298,145.726501 C278.489288,145.407684 278.646240,145.097168 278.803162,144.786652 C278.803162,144.786652 279.010315,144.920273 279.171112,144.818359 C279.489532,144.406097 279.647156,144.095749 279.804749,143.785400 C279.804779,143.785416 280.006683,143.903519 280.169739,143.810440 C280.491302,143.407166 280.649811,143.096970 280.808319,142.786774 C280.808319,142.786774 280.888184,142.919952 281.130707,142.784271 C281.574982,142.068207 281.776733,141.487823 281.978516,140.907440 z" opacity="1"/><path fill="#A376B6" stroke="none" d="M530.405762,352.045837 C531.702820,349.919678 533.149780,347.553101 535.003357,345.565765 C539.112732,341.159790 539.237976,339.792511 535.163940,335.658997 C511.870667,312.025787 488.562012,288.407684 465.297668,264.746063 C464.066925,263.494293 463.192047,261.892670 462.243164,260.091309 C463.266327,260.365784 464.328461,260.872925 465.110565,261.658752 C490.304596,286.973450 515.472656,312.314026 540.636780,337.658447 C541.320801,338.347351 541.918579,339.121887 543.014221,340.383545 C538.839844,344.326630 534.790039,348.152008 530.405762,352.045837 z" opacity="1"/><path fill="#A277B4" stroke="none" d="M267.696167,155.099152 C266.794830,156.997452 265.950104,159.413574 264.308716,161.011307 C262.000854,163.257812 261.814575,165.195175 263.932587,167.348801 C269.995178,173.513351 275.993164,179.758133 282.388580,185.561386 C283.402069,186.481018 287.048462,186.047577 288.274048,184.925354 C294.644928,179.091705 300.722290,172.922760 306.639191,166.623810 C307.529999,165.675476 307.815643,162.684341 307.063385,161.896561 C300.066437,154.569260 292.792847,147.505341 285.546478,140.419235 C285.153503,140.034958 284.288177,140.133728 283.269287,139.991302 C283.599548,139.119156 284.303223,138.263382 284.772095,137.693130 C293.737946,146.438095 302.504242,154.988419 311.043304,163.317154 C302.032349,172.038010 293.042938,180.737991 284.331207,189.169220 C276.559082,181.635330 267.703979,173.051651 258.016357,163.660950 C261.262604,160.750946 264.329956,158.001328 267.696167,155.099152 z" opacity="1"/><path fill="#81A2BE" stroke="none" d="M280.961395,434.370300 C283.293335,435.922882 285.858704,437.656036 288.136658,439.708252 C291.104492,442.382019 293.814423,445.339874 296.690338,448.118561 C299.895081,451.214905 302.686829,451.063416 305.935150,447.685120 C314.712097,438.556946 323.785614,429.714020 332.741608,420.758026 C341.544464,411.955139 350.405365,403.208832 359.090820,394.291626 C360.469147,392.876465 361.057556,390.691925 362.311432,388.544556 C363.409271,388.841156 364.206848,389.456268 365.009460,390.267914 C365.014526,390.464478 365.022522,390.857666 365.022583,390.857727 C343.447418,411.816620 321.872223,432.775482 300.901154,453.147430 C294.906494,447.569702 287.986755,441.131226 280.961395,434.370300 z" opacity="1"/><path fill="#7EA1BD" stroke="none" d="M316.207733,241.365143 C313.231781,239.343964 309.969574,237.237320 307.206757,234.606323 C300.908783,228.608887 301.004761,228.500961 294.746674,234.757034 C277.219757,252.278290 259.707489,269.814240 242.148682,287.303497 C240.772919,288.673798 239.081299,289.727020 237.176010,290.929749 C237.728302,289.768005 238.533524,288.497101 239.569717,287.456085 C259.492798,267.440521 279.442200,247.451096 299.392365,227.462479 C299.850861,227.003098 300.381134,226.615372 300.433044,226.571365 C305.754791,231.471527 310.951538,236.256561 316.207733,241.365143 z" opacity="1"/><path fill="#7EA1BD" stroke="none" d="M199.673004,328.058716 C197.844620,330.907501 196.052338,334.241364 193.497208,336.819061 C190.719086,339.621735 190.767746,341.398895 193.555649,344.154968 C210.965637,361.366241 228.244324,378.710754 245.495377,396.081757 C246.747391,397.342499 247.437027,399.161713 248.119904,400.899506 C232.634109,385.831207 217.462601,370.538269 202.171951,355.365356 C197.359161,350.589630 192.226868,346.135864 186.740906,341.073425 C191.569275,336.156921 195.471161,332.183838 199.673004,328.058716 z" opacity="1"/><path fill="#A376B6" stroke="none" d="M449.399292,434.151428 C450.010742,432.409088 450.528290,430.125946 451.926086,428.714630 C471.072693,409.382904 490.334686,390.165375 509.600677,370.952240 C510.386169,370.168915 511.490356,369.705200 512.805420,369.105652 C512.233521,370.434113 511.465851,371.911835 510.346191,373.040375 C494.823547,388.685913 479.248871,404.279877 463.695770,419.895203 C459.021454,424.588226 454.374268,429.308319 449.399292,434.151428 z" opacity="1"/><path fill="#A173B4" stroke="none" d="M414.033661,242.016220 C412.929901,243.602753 412.030518,245.391800 410.690491,246.744186 C398.437134,259.109985 385.987305,271.284210 373.904266,283.812866 C371.581696,286.221039 370.611694,289.933685 368.728943,293.323730 C367.287872,292.597015 366.135590,291.591064 364.992859,290.415710 C365.002411,290.246246 365.019897,289.907257 365.019897,289.907257 C379.994049,274.855927 394.967804,259.804199 409.943481,244.754379 C410.762878,243.930893 411.598389,243.123413 412.976166,242.158264 C413.695160,242.010773 413.864410,242.013489 414.033661,242.016220 z" opacity="1"/><path fill="#7EA1BD" stroke="none" d="M364.766754,289.698853 C365.019897,289.907257 365.002411,290.246246 364.740479,290.621033 C363.650574,291.650024 362.822571,292.304230 361.994568,292.958435 C360.627136,290.438721 359.737885,287.453857 357.813721,285.475708 C346.432098,273.775116 334.792511,262.325714 323.294678,250.737244 C322.062378,249.495224 321.184753,247.901276 320.215668,246.106689 C321.338776,246.509415 322.514343,247.151154 323.420013,248.061432 C337.138733,261.850372 350.822021,275.674500 364.766754,289.698853 z" opacity="1"/><path fill="#A376B6" stroke="none" d="M460.230499,257.337433 C458.767273,256.860077 456.976074,256.350891 455.803558,255.207352 C448.307709,247.896500 440.958313,240.435715 433.539246,233.045822 C429.262146,228.785553 428.790039,228.873230 424.283966,233.160492 C421.802032,235.521881 419.084351,237.635513 416.109985,239.783356 C420.031311,234.966644 424.315643,230.227402 428.156982,225.978165 C439.049042,236.531036 449.618835,246.771652 460.230499,257.337433 z" opacity="1"/><path fill="#A173B4" stroke="none" d="M403.868591,429.397980 C407.244781,431.903137 410.890106,434.576233 414.244415,437.574829 C418.055389,440.981659 421.797241,444.507568 425.213593,448.301788 C428.319824,451.751648 430.744232,450.769470 433.499451,448.048981 C434.992706,446.574585 436.774048,445.391998 438.785309,444.090210 C435.985168,447.664215 432.825134,451.225830 429.749969,454.691803 C420.877899,446.081238 412.443542,437.895477 403.868591,429.397980 z" opacity="1"/><path fill="#A173B4" stroke="none" d="M365.321167,391.018494 C365.022522,390.857666 365.014526,390.464478 365.300354,390.137543 C366.724121,388.880463 367.862030,387.950317 368.999908,387.020142 C370.075562,389.588715 370.655365,392.558044 372.336029,394.637726 C375.313690,398.322449 379.040405,401.392059 382.284180,404.876801 C383.441254,406.119904 384.106506,407.820801 384.986053,409.682404 C378.523834,403.761169 372.071838,397.470245 365.321167,391.018494 z" opacity="1"/><path fill="#1E1F35" stroke="none" d="M225.585205,196.826508 C221.734863,201.093353 217.571198,205.499924 213.041809,209.901245 C216.874680,205.586075 221.073288,201.276169 225.585205,196.826508 z" opacity="1"/><path fill="#A173B4" stroke="none" d="M391.049500,416.360107 C396.237244,417.088043 399.209534,420.635681 400.952148,425.854919 C397.679932,423.048187 394.432892,419.857147 391.049500,416.360107 z" opacity="1"/><path fill="#1E1F35" stroke="none" d="M240.568756,181.767792 C239.034393,183.717499 237.188202,185.809677 234.965424,187.890076 C236.478226,185.888947 238.367569,183.899597 240.568756,181.767792 z" opacity="1"/><path fill="#1E1F35" stroke="none" d="M559.850708,304.527527 C561.776794,306.077515 563.835327,307.934296 565.883667,310.176422 C563.910034,308.652618 561.946594,306.743500 559.850708,304.527527 z" opacity="1"/><path fill="#A173B4" stroke="none" d="M385.094177,410.320221 C388.560822,409.971924 390.378479,411.962463 390.965332,415.709076 C389.044403,414.263092 387.142822,412.439362 385.094177,410.320221 z" opacity="1"/><path fill="#A173B4" stroke="none" d="M444.324341,439.036194 C444.928741,437.982849 445.811401,436.783203 446.895050,435.852722 C446.264893,437.044556 445.433746,437.967224 444.324341,439.036194 z" opacity="1"/><path fill="#7EA1BD" stroke="none" d="M319.213043,244.385071 C318.228210,243.958527 317.190979,243.218094 316.230164,242.104660 C317.257935,242.511490 318.209259,243.291321 319.213043,244.385071 z" opacity="1"/><path fill="#81A2BE" stroke="none" d="M257.083313,410.292786 C257.964966,410.764618 258.978302,411.519806 259.993835,412.651550 C259.069000,412.210815 258.142029,411.393463 257.083313,410.292786 z" opacity="1"/><path fill="#81A2BE" stroke="none" d="M270.012695,423.329407 C270.912628,423.788788 271.951935,424.531769 272.992920,425.656342 C272.047089,425.229584 271.099579,424.421295 270.012695,423.329407 z" opacity="1"/><path fill="#A376B6" stroke="none" d="M414.368164,241.960205 C413.864410,242.013489 413.695160,242.010773 413.272034,242.006973 C413.713531,241.272064 414.408936,240.538239 415.403625,239.769745 C415.369507,240.458099 415.036072,241.181152 414.368164,241.960205 z" opacity="1"/><path fill="#A376B6" stroke="none" d="M462.241547,259.370056 C461.572968,259.267365 460.873199,258.860443 460.247955,258.090210 C460.951782,258.173248 461.581055,258.619568 462.241547,259.370056 z" opacity="1"/><path fill="#A277B4" stroke="none" d="M277.392395,145.778198 C277.283844,146.433197 276.873810,147.134659 276.100098,147.778641 C276.187897,147.089005 276.639404,146.456848 277.392395,145.778198 z" opacity="1"/><path fill="#A277B4" stroke="none" d="M281.709839,141.061005 C281.776733,141.487823 281.574982,142.068207 281.065338,142.742371 C280.985352,142.295624 281.213287,141.755112 281.709839,141.061005 z" opacity="1"/><path fill="#1E1F35" stroke="none" d="M249.722397,173.677185 C249.464813,174.264343 248.905869,174.588150 248.003372,174.903717 C248.246902,174.401627 248.833969,173.907730 249.722397,173.677185 z" opacity="1"/><path fill="#A277B4" stroke="none" d="M272.527924,150.748962 C272.413422,151.157806 271.992004,151.557785 271.252014,151.974136 C271.362640,151.573700 271.791840,151.156906 272.527924,150.748962 z" opacity="1"/><path fill="#1E1F35" stroke="none" d="M550.740417,295.389862 C550.958069,295.327026 551.316467,295.543060 551.788574,296.059998 C551.561951,296.130157 551.221558,295.899445 550.740417,295.389862 z" opacity="1"/><path fill="#A277B4" stroke="none" d="M278.519897,144.814178 C278.646240,145.097168 278.489288,145.407684 278.061523,145.768250 C277.939362,145.492783 278.088013,145.167236 278.519897,144.814178 z" opacity="1"/><path fill="#1E1F35" stroke="none" d="M558.796387,303.444153 C559.024292,303.366302 559.353943,303.552399 559.754883,304.025696 C559.516846,304.111267 559.207520,303.909698 558.796387,303.444153 z" opacity="1"/><path fill="#1E1F35" stroke="none" d="M557.724487,302.388733 C557.945618,302.317322 558.301758,302.518372 558.755798,303.020142 C558.522339,303.100983 558.190857,302.881073 557.724487,302.388733 z" opacity="1"/><path fill="#A277B4" stroke="none" d="M275.548889,147.837311 C275.665558,148.107254 275.501862,148.415985 275.069275,148.782562 C274.956421,148.518951 275.112457,148.197525 275.548889,147.837311 z" opacity="1"/><path fill="#A277B4" stroke="none" d="M280.523865,142.813232 C280.649811,143.096970 280.491302,143.407166 280.061584,143.766144 C279.940033,143.489853 280.089722,143.164764 280.523865,142.813232 z" opacity="1"/><path fill="#1E1F35" stroke="none" d="M552.753418,297.391235 C552.970764,297.330627 553.325439,297.549255 553.791565,298.068451 C553.565613,298.136169 553.228149,297.903320 552.753418,297.391235 z" opacity="1"/><path fill="#A376B6" stroke="none" d="M529.294739,353.013794 C529.227478,352.808319 529.415588,352.518738 529.851196,352.133942 C529.915833,352.335724 529.732971,352.632690 529.294739,353.013794 z" opacity="1"/><path fill="#A277B4" stroke="none" d="M274.552368,148.836761 C274.668762,149.107025 274.504089,149.415985 274.070374,149.783432 C273.957977,149.519775 274.114624,149.197632 274.552368,148.836761 z" opacity="1"/><path fill="#A277B4" stroke="none" d="M273.549500,149.831009 C273.668457,150.103821 273.504059,150.412491 273.069763,150.775040 C272.955322,150.508240 273.110748,150.187546 273.549500,149.831009 z" opacity="1"/><path fill="#A376B6" stroke="none" d="M448.249451,435.329590 C448.200348,435.277130 448.289825,435.223083 448.298035,435.200714 C448.306213,435.178345 448.298553,435.382080 448.249451,435.329590 z" opacity="1"/><path fill="#A173B4" stroke="none" d="M441.314240,442.026917 C441.263153,441.808624 441.482971,441.507874 441.980347,441.129578 C442.033630,441.349487 441.809387,441.646973 441.314240,442.026917 z" opacity="1"/><path fill="#A173B4" stroke="none" d="M440.313416,443.037048 C440.238586,442.822540 440.423706,442.527252 440.860840,442.139709 C440.933014,442.350372 440.753204,442.653290 440.313416,443.037048 z" opacity="1"/><path fill="#A173B4" stroke="none" d="M439.315460,444.039856 C439.240509,443.824432 439.425873,443.528900 439.864197,443.142334 C439.936646,443.354126 439.756226,443.656921 439.315460,444.039856 z" opacity="1"/><path fill="#7EA1BD" stroke="none" d="M320.160889,245.543716 C319.899261,245.654236 319.591217,245.493530 319.234436,245.062775 C319.495300,244.952637 319.804901,245.112564 320.160889,245.543716 z" opacity="1"/><path fill="#A277B4" stroke="none" d="M279.520630,143.811676 C279.647156,144.095749 279.489532,144.406097 279.060547,144.764221 C278.938293,144.487320 279.087402,144.162643 279.520630,143.811676 z" opacity="1"/><path fill="#A376B6" stroke="none" d="M516.325562,366.047424 C516.252686,365.835571 516.436340,365.538910 516.873901,365.152924 C516.945923,365.363251 516.763977,365.662903 516.325562,366.047424 z" opacity="1"/><path fill="#A376B6" stroke="none" d="M515.326782,367.049194 C515.254089,366.837280 515.437927,366.540283 515.876343,366.154663 C515.948364,366.365417 515.765869,366.664795 515.326782,367.049194 z" opacity="1"/><path fill="#A376B6" stroke="none" d="M514.327881,368.050934 C514.255493,367.839386 514.439270,367.541962 514.877808,367.155823 C514.949829,367.366455 514.766968,367.665771 514.327881,368.050934 z" opacity="1"/><path fill="#A376B6" stroke="none" d="M518.320984,364.042267 C518.248657,363.831085 518.432922,363.535522 518.870117,363.149719 C518.941223,363.358917 518.759399,363.658386 518.320984,364.042267 z" opacity="1"/><path fill="#A376B6" stroke="none" d="M513.327637,369.050842 C513.255798,368.839264 513.440369,368.542114 513.880188,368.156891 C513.951660,368.367645 513.767883,368.666473 513.327637,369.050842 z" opacity="1"/><path fill="#A376B6" stroke="none" d="M519.318420,363.039246 C519.246216,362.828552 519.430603,362.533478 519.867126,362.147217 C519.937866,362.355682 519.756470,362.655243 519.318420,363.039246 z" opacity="1"/><path fill="#A376B6" stroke="none" d="M520.314697,362.035339 C520.243042,361.825378 520.427795,361.531036 520.863892,361.144775 C520.933838,361.352234 520.752441,361.651611 520.314697,362.035339 z" opacity="1"/><path fill="#A376B6" stroke="none" d="M521.311218,361.030914 C521.239868,360.821960 521.424805,360.528442 521.859619,360.141083 C521.928833,360.346954 521.748169,360.646667 521.311218,361.030914 z" opacity="1"/><path fill="#A376B6" stroke="none" d="M522.305420,360.025879 C522.234680,359.817474 522.420166,359.525146 522.854370,359.138489 C522.922668,359.343445 522.742188,359.642700 522.305420,360.025879 z" opacity="1"/><path fill="#A376B6" stroke="none" d="M517.323120,365.044495 C517.250610,364.832947 517.434753,364.537018 517.872375,364.151428 C517.943787,364.361206 517.761841,364.660645 517.323120,365.044495 z" opacity="1"/><path fill="#A376B6" stroke="none" d="M523.302490,359.020508 C523.232361,358.812653 523.418762,358.521790 523.853088,358.135651 C523.920288,358.339447 523.739685,358.638489 523.302490,359.020508 z" opacity="1"/><path fill="#A376B6" stroke="none" d="M524.296509,358.014954 C524.228577,357.810059 524.415039,357.519684 524.848511,357.133667 C524.913940,357.335175 524.732483,357.632324 524.296509,358.014954 z" opacity="1"/><path fill="#A376B6" stroke="none" d="M525.294434,357.011719 C525.226990,356.806458 525.414490,356.517303 525.848938,356.132812 C525.913757,356.334320 525.731567,356.631073 525.294434,357.011719 z" opacity="1"/><path fill="#A376B6" stroke="none" d="M526.293701,356.011719 C526.226562,355.806763 526.414307,355.517487 526.848999,355.132812 C526.913513,355.334076 526.731018,355.630737 526.293701,356.011719 z" opacity="1"/><path fill="#A376B6" stroke="none" d="M527.293762,355.011871 C527.226685,354.806915 527.414612,354.517639 527.849609,354.132935 C527.914001,354.334167 527.731323,354.630859 527.293762,355.011871 z" opacity="1"/><path fill="#A376B6" stroke="none" d="M528.294067,354.012726 C528.226990,353.807465 528.415039,353.518097 528.850464,353.133423 C528.914917,353.334961 528.732056,353.631775 528.294067,354.012726 z" opacity="1"/><path fill="#39346F" stroke="none" d="M369.146271,386.720276 C367.862030,387.950317 366.724121,388.880463 365.295319,389.940979 C364.206848,389.456268 363.409271,388.841156 362.315918,388.169128 C354.278442,379.892822 346.587433,371.624908 338.778595,363.469849 C332.906250,357.337097 326.903809,351.328125 320.920074,345.302979 C315.838043,340.185760 315.768250,340.166138 321.024078,334.825287 C333.871185,321.770355 346.764709,308.761017 359.636688,295.730560 C360.338287,295.020325 361.013794,294.284332 361.848022,293.259399 C362.822571,292.304230 363.650574,291.650024 364.730896,290.790466 C366.135590,291.591064 367.287872,292.597015 368.738831,293.713379 C382.437469,307.450348 395.840149,321.074249 409.234222,334.706635 C410.956726,336.459839 412.634613,338.256836 414.720093,340.438232 C399.373322,355.972412 384.332977,371.196411 369.146271,386.720276 z" opacity="1"/></svg>