<svg version="1.1" xmlns="http://www.w3.org/2000/svg" xmlns:xlink="http://www.w3.org/1999/xlink"
     width="100%" viewBox="649 240 840 200" xml:space="preserve">
<path fill="#FFFFFF" opacity="1.000000" stroke="none" 
	d="
M959.000000,673.000000 
	C639.369019,673.000000 320.238068,673.000000 1.053562,673.000000 
	C1.053562,449.060791 1.053562,225.121536 1.053562,1.091153 
	C520.547729,1.091153 1040.095581,1.091153 1559.821655,1.091153 
	C1559.821655,224.999893 1559.821655,448.999939 1559.821655,673.000000 
	C1359.787964,673.000000 1159.644043,673.000000 959.000000,673.000000 
M1348.126953,376.763885 
	C1347.842407,376.945221 1347.652466,377.197723 1347.709229,378.011414 
	C1347.649658,377.850769 1347.590210,377.690155 1346.906006,377.829926 
	C1334.188477,386.591888 1321.179810,385.520264 1308.000610,379.002441 
	C1308.000610,379.002441 1308.020996,378.988434 1307.710938,378.490936 
	C1307.200684,378.222076 1306.690552,377.953217 1306.156738,377.811432 
	C1306.156738,377.811432 1306.274780,377.758881 1305.979248,377.209137 
	C1305.008789,376.436798 1304.038330,375.664429 1303.018311,374.975616 
	C1303.018311,374.975616 1303.105835,374.933441 1302.854492,374.287170 
	C1296.152832,366.004089 1293.829346,356.514771 1295.052612,346.000183 
	C1295.052612,346.000183 1295.011108,346.022491 1295.942505,346.118713 
	C1301.077393,346.127380 1306.212280,346.164734 1311.347046,346.139557 
	C1330.217285,346.046967 1349.087524,345.933624 1368.573242,345.714233 
	C1368.714233,344.143250 1368.855225,342.572235 1369.221802,340.198456 
	C1369.162598,336.472870 1369.103394,332.747284 1369.256958,328.537537 
	C1369.155518,328.029968 1369.053955,327.522400 1369.097534,326.498901 
	C1369.039917,326.329742 1368.982300,326.160614 1369.066040,325.121277 
	C1367.575073,313.037109 1365.037231,301.459534 1354.000000,294.000000 
	C1354.000000,294.000000 1354.007446,293.996094 1353.649780,293.460968 
	C1352.542114,292.828156 1351.434448,292.195374 1350.074829,291.822205 
	C1350.074829,291.822205 1350.361084,291.600983 1349.914673,291.096832 
	C1331.724976,282.207977 1314.053955,282.887970 1296.987549,294.006592 
	C1296.987549,294.006592 1296.974121,293.952515 1296.365967,294.072998 
	C1295.439209,294.872833 1294.512451,295.672668 1293.664551,296.614716 
	C1293.664551,296.614716 1293.524292,296.532196 1293.033325,296.774933 
	C1292.683716,297.181580 1292.334229,297.588226 1291.437744,298.196686 
	C1290.956665,298.792206 1290.475708,299.387726 1289.400635,300.274200 
	C1288.114624,302.045654 1286.828491,303.817108 1285.954712,305.913239 
	C1285.811646,305.812836 1285.668457,305.712433 1285.015503,306.037170 
	C1275.632202,320.866730 1274.693359,337.240173 1276.449097,354.026520 
	C1277.368530,362.817047 1279.472046,371.307098 1284.786987,378.881317 
	C1284.786987,378.881317 1284.980835,378.997894 1285.116455,379.675293 
	C1287.742798,382.453461 1290.369019,385.231628 1293.000000,388.000000 
	C1293.000000,388.000000 1292.989502,388.005402 1293.335083,388.577118 
	C1294.844116,389.548828 1296.353271,390.520538 1298.102661,391.849823 
	C1298.102661,391.849823 1298.496338,392.024719 1298.496338,392.024719 
	C1298.496338,392.024719 1298.927124,392.024567 1299.334106,392.576324 
	C1305.952271,394.619934 1312.446899,397.627380 1319.215820,398.494049 
	C1331.036499,400.007538 1342.811279,399.058075 1353.185425,392.218750 
	C1353.185425,392.218750 1353.261353,392.368866 1353.905762,392.181641 
	C1355.592163,390.783142 1357.278564,389.384644 1359.458496,387.827148 
	C1359.635376,387.541931 1359.812378,387.256714 1360.587769,386.676392 
	C1363.516846,382.264618 1366.445801,377.852844 1369.621094,373.070190 
	C1365.293701,370.909637 1362.019531,369.410919 1358.882690,367.665680 
	C1356.398682,366.283630 1355.242676,367.220398 1354.961426,369.875336 
	C1354.961426,369.875336 1354.568237,369.618591 1354.079956,369.949310 
	C1353.692017,370.622894 1353.304077,371.296478 1352.450439,372.169312 
	C1352.306763,372.465363 1352.163086,372.761383 1351.533203,373.322235 
	C1351.213623,373.764709 1350.894165,374.207214 1350.814575,374.874786 
	C1350.814575,374.874786 1350.618286,374.610718 1350.141602,374.814941 
	C1349.969727,375.106873 1349.797974,375.398773 1349.804688,375.808411 
	C1349.804688,375.808411 1349.679077,375.635254 1349.191650,375.793823 
	C1348.989014,376.059357 1348.786499,376.324890 1348.929932,377.000000 
	C1348.812256,376.863647 1348.694580,376.727264 1348.126953,376.763885 
M1169.227783,295.749084 
	C1168.792969,296.149536 1168.358154,296.549957 1167.998291,296.993011 
	C1167.998291,296.993011 1167.948608,296.922577 1167.342651,297.211670 
	C1160.909790,303.393005 1156.916870,310.934357 1154.815430,319.552368 
	C1151.327026,333.856995 1150.923096,348.270233 1154.114502,362.612366 
	C1155.234253,367.644379 1157.814575,372.351379 1159.821533,377.234619 
	C1159.821533,377.234619 1159.746582,377.181488 1159.735962,377.880127 
	C1160.732300,379.325714 1161.728516,380.771301 1162.767212,382.226807 
	C1162.767212,382.226807 1162.751465,382.191193 1162.766235,382.889252 
	C1167.512817,390.474792 1174.461548,395.132111 1182.966553,397.281982 
	C1201.505127,401.968201 1217.927002,399.309479 1229.590698,381.403717 
	C1229.942017,381.860443 1230.293335,382.317169 1230.644653,382.773895 
	C1230.850708,387.438843 1231.056641,392.103760 1231.255981,396.619354 
	C1237.408203,396.619354 1242.968994,396.619354 1248.510376,396.619354 
	C1248.510376,345.646729 1248.510376,295.107300 1248.510376,244.340668 
	C1242.413452,244.340668 1236.692017,244.340668 1230.492188,244.340668 
	C1230.492188,249.281357 1230.445557,253.909439 1230.500854,258.536285 
	C1230.666138,272.344116 1230.870972,286.151489 1230.967285,300.571320 
	C1230.983643,300.777130 1231.000000,300.982910 1230.303833,301.163727 
	C1229.682495,300.632355 1228.940918,300.192200 1228.457397,299.556030 
	C1219.778442,288.137848 1207.929688,284.032074 1194.124878,285.221375 
	C1184.963867,286.010620 1176.040649,287.969391 1169.758667,295.807648 
	C1169.758667,295.807648 1169.840332,295.759277 1169.227783,295.749084 
M688.015015,298.159241 
	C688.015015,294.906250 688.015015,291.653259 688.015015,288.382690 
	C682.035522,288.382690 677.125244,288.382690 672.308960,288.382690 
	C672.308960,324.806915 672.308960,360.844391 672.308960,396.799957 
	C678.079224,396.799957 683.313965,396.799957 689.016602,396.799957 
	C689.016602,394.412964 688.990356,392.446655 689.020691,390.481201 
	C689.334045,370.176880 689.163696,349.848145 690.171143,329.578094 
	C690.728333,318.367767 695.372437,308.485687 706.348938,303.214905 
	C720.935608,296.210571 733.767029,302.891937 736.240845,318.712494 
	C736.752197,321.982697 736.966064,325.329773 736.979004,328.642700 
	C737.061768,349.800873 737.126587,370.959900 736.997803,392.117432 
	C736.975037,395.856079 737.717285,397.788422 741.921814,397.269928 
	C744.548096,396.946014 747.266968,396.985962 749.906372,397.246735 
	C753.773499,397.628754 755.127441,396.321777 755.051636,392.271637 
	C754.811829,379.447845 754.853699,366.615112 755.017517,353.788757 
	C755.125854,345.312134 755.068054,336.773071 756.074646,328.380646 
	C758.226868,310.436310 769.040283,300.480957 784.923035,300.948517 
	C793.328125,301.195892 799.604187,306.217468 801.006653,314.538116 
	C802.025635,320.583557 802.728455,326.752380 802.797485,332.874939 
	C803.015503,352.198273 802.868713,371.525665 802.863281,390.851501 
	C802.862793,392.785675 802.863220,394.719879 802.863220,397.187653 
	C807.020813,397.187653 810.513611,396.875214 813.927368,397.261658 
	C818.910400,397.825745 820.094238,395.684448 820.050720,391.060089 
	C819.851562,369.903687 820.203186,348.739594 819.792908,327.589172 
	C819.649048,320.174957 818.333496,312.695984 816.754150,305.420013 
	C814.914368,296.944397 809.531311,290.740753 801.498840,287.466003 
	C784.751648,280.638519 764.213989,287.266663 754.296082,302.332214 
	C753.630249,303.343719 752.754395,304.217010 751.749268,305.428070 
	C743.255920,277.799286 702.697021,279.427307 688.549683,303.250275 
	C688.327515,301.456604 688.177368,300.244202 688.015015,298.159241 
M927.775940,357.499817 
	C927.786560,344.666595 928.028381,331.828064 927.731262,319.001953 
	C927.511963,309.531891 925.749329,300.403320 918.194885,293.557892 
	C912.354492,288.265717 905.213867,286.145660 897.630493,285.574005 
	C879.584961,284.213776 863.172363,288.050385 850.152710,301.617981 
	C849.147827,302.665131 847.885986,304.916077 848.330566,305.663361 
	C850.810852,309.832397 853.780334,313.710449 857.270264,318.664215 
	C858.834229,316.520874 859.559448,315.403198 860.405701,314.386169 
	C869.928589,302.940918 882.439331,299.483002 896.719116,300.979889 
	C903.864075,301.728851 908.430664,306.095032 909.155579,312.545441 
	C910.027466,320.303253 907.218018,324.744232 899.675842,327.396362 
	C897.795349,328.057587 895.862305,328.580719 893.932434,329.087769 
	C883.960266,331.707977 873.780762,333.716125 864.051880,337.043762 
	C849.630737,341.976227 842.726440,354.732391 844.117432,371.825134 
	C845.224182,385.424805 854.308044,395.722046 868.731384,398.163727 
	C885.284790,400.965973 900.365723,398.355286 910.763062,383.213257 
	C910.969604,382.912476 911.432617,382.787842 912.218689,382.314392 
	C913.417969,389.538177 916.537903,395.221802 923.898132,396.571136 
	C928.382874,397.393280 933.096741,397.019196 937.709045,397.077087 
	C942.486267,397.137085 943.726013,394.390472 942.748840,390.229736 
	C941.935486,386.766449 943.235657,381.872162 936.390320,382.967255 
	C930.247742,383.949921 927.995239,381.408569 927.844299,374.999023 
	C927.714783,369.501770 927.792053,363.999664 927.775940,357.499817 
M1057.470581,299.025085 
	C1046.416626,316.692291 1052.452393,335.229431 1072.166870,342.774231 
	C1080.052979,345.792267 1088.434814,347.495483 1096.528198,350.000305 
	C1100.314697,351.172211 1104.266113,352.314789 1107.597046,354.359680 
	C1116.955566,360.104767 1116.962402,372.752075 1107.892090,378.943176 
	C1097.553589,385.999817 1077.754639,384.067657 1068.303711,374.981659 
	C1065.596924,372.379303 1063.139282,369.517822 1060.661621,366.875580 
	C1046.741455,377.353088 1046.870728,381.762970 1060.664307,391.080566 
	C1060.940186,391.266937 1061.203369,391.477295 1061.494751,391.635345 
	C1079.439697,401.371033 1097.880859,401.499969 1116.263306,393.496765 
	C1127.320557,388.682800 1131.733521,379.145050 1132.108154,367.320831 
	C1132.498535,354.996399 1128.049683,345.293091 1116.840332,339.870209 
	C1110.479004,336.792786 1103.411987,335.139832 1096.607422,333.023193 
	C1090.430542,331.101715 1083.989868,329.892303 1078.013184,327.500366 
	C1072.148071,325.153107 1069.365601,319.396576 1069.983643,313.318420 
	C1070.611816,307.139282 1074.119873,303.084656 1079.964478,301.599792 
	C1083.762695,300.634796 1087.843018,300.346741 1091.779785,300.443787 
	C1102.012207,300.696167 1110.681519,305.009155 1118.383179,312.244141 
	C1120.881958,309.431793 1122.945190,306.837646 1125.293091,304.533844 
	C1128.442505,301.443756 1127.785645,299.108307 1124.675415,296.380463 
	C1113.329102,286.429413 1099.948120,284.052246 1085.503174,285.486450 
	C1074.797241,286.549377 1064.899780,289.447784 1057.470581,299.025085 
M980.867981,397.813446 
	C991.698730,399.622894 1002.447754,399.324188 1012.970276,396.071716 
	C1026.132568,392.003418 1033.759521,382.461304 1034.774292,369.213440 
	C1035.859253,355.049133 1030.014771,344.542023 1016.978821,338.686066 
	C1011.413879,336.186188 1005.318359,334.853333 999.439758,333.069733 
	C993.253052,331.192657 986.791016,329.981140 980.899719,327.436066 
	C974.229614,324.554535 971.744995,318.675629 972.913818,311.832611 
	C973.900696,306.055084 978.169250,302.065338 984.983337,300.893372 
	C996.754211,298.868896 1007.408264,301.425995 1016.898926,308.820892 
	C1018.190063,309.826874 1020.967102,311.083984 1021.464478,310.597565 
	C1024.517944,307.610901 1027.823608,304.463989 1029.463135,300.684174 
	C1030.012207,299.418152 1026.271484,295.684998 1023.894226,293.855896 
	C1009.754822,282.976471 984.626526,281.952667 968.426208,291.344269 
	C950.801636,301.561554 949.983887,328.338501 967.377869,338.953857 
	C973.372925,342.612640 980.427917,344.656769 987.167725,346.939392 
	C994.080811,349.280701 1001.351990,350.602081 1008.186218,353.128021 
	C1014.632263,355.510437 1017.463318,360.731293 1017.149536,367.748566 
	C1016.845947,374.540222 1012.791260,378.479614 1007.177124,380.842651 
	C994.328918,386.250549 978.251160,382.758942 968.381958,372.777161 
	C966.545349,370.919647 964.821167,368.950989 962.868591,366.843109 
	C960.643677,368.683838 958.668030,370.187378 956.841064,371.853943 
	C950.783264,377.379761 950.751343,378.508972 956.326233,384.742554 
	C962.690491,391.858734 970.834473,395.723511 980.867981,397.813446 
M1471.028687,334.651825 
	C1476.585571,319.261292 1482.142578,303.870789 1487.887695,287.958984 
	C1482.736450,287.958984 1478.409424,288.135223 1474.105347,287.897736 
	C1471.177002,287.736176 1469.744995,288.658142 1468.704224,291.530182 
	C1461.170898,312.316193 1453.467529,333.040771 1445.758545,353.762695 
	C1442.786987,361.750488 1439.660889,369.680817 1436.161255,378.793213 
	C1434.764038,375.509247 1433.792847,373.459534 1433.005859,371.341370 
	C1423.277832,345.161072 1413.616577,318.955841 1403.783569,292.815155 
	C1403.086914,290.963135 1401.312134,288.348602 1399.806030,288.181274 
	C1394.624756,287.605621 1389.340088,287.959991 1383.449463,287.959991 
	C1387.147461,297.823090 1390.572021,306.975372 1394.009888,316.122589 
	C1403.598755,341.635345 1413.238281,367.129242 1422.726074,392.679474 
	C1423.878784,395.783447 1425.353638,397.177216 1428.837524,396.942932 
	C1433.813477,396.608307 1438.838623,396.654999 1443.822632,396.918304 
	C1447.021606,397.087311 1448.406006,395.964874 1449.505737,392.929291 
	C1456.470703,373.705292 1463.683350,354.571106 1471.028687,334.651825 
z"/>
<path fill="#74A1C8" opacity="1.000000" stroke="none" 
	d="
M688.021118,298.595520 
	C688.177368,300.244202 688.327515,301.456604 688.549683,303.250275 
	C702.697021,279.427307 743.255920,277.799286 751.749268,305.428070 
	C752.754395,304.217010 753.630249,303.343719 754.296082,302.332214 
	C764.213989,287.266663 784.751648,280.638519 801.498840,287.466003 
	C809.531311,290.740753 814.914368,296.944397 816.754150,305.420013 
	C818.333496,312.695984 819.649048,320.174957 819.792908,327.589172 
	C820.203186,348.739594 819.851562,369.903687 820.050720,391.060089 
	C820.094238,395.684448 818.910400,397.825745 813.927368,397.261658 
	C810.513611,396.875214 807.020813,397.187653 802.863220,397.187653 
	C802.863220,394.719879 802.862793,392.785675 802.863281,390.851501 
	C802.868713,371.525665 803.015503,352.198273 802.797485,332.874939 
	C802.728455,326.752380 802.025635,320.583557 801.006653,314.538116 
	C799.604187,306.217468 793.328125,301.195892 784.923035,300.948517 
	C769.040283,300.480957 758.226868,310.436310 756.074646,328.380646 
	C755.068054,336.773071 755.125854,345.312134 755.017517,353.788757 
	C754.853699,366.615112 754.811829,379.447845 755.051636,392.271637 
	C755.127441,396.321777 753.773499,397.628754 749.906372,397.246735 
	C747.266968,396.985962 744.548096,396.946014 741.921814,397.269928 
	C737.717285,397.788422 736.975037,395.856079 736.997803,392.117432 
	C737.126587,370.959900 737.061768,349.800873 736.979004,328.642700 
	C736.966064,325.329773 736.752197,321.982697 736.240845,318.712494 
	C733.767029,302.891937 720.935608,296.210571 706.348938,303.214905 
	C695.372437,308.485687 690.728333,318.367767 690.171143,329.578094 
	C689.163696,349.848145 689.334045,370.176880 689.020691,390.481201 
	C688.990356,392.446655 689.016602,394.412964 689.016602,396.799957 
	C683.313965,396.799957 678.079224,396.799957 672.308960,396.799957 
	C672.308960,360.844391 672.308960,324.806915 672.308960,288.382690 
	C677.125244,288.382690 682.035522,288.382690 688.015015,288.382690 
	C688.015015,291.653259 688.015015,294.906250 688.021118,298.595520 
z"/>
<path fill="#75A2C8" opacity="1.000000" stroke="none" 
	d="
M927.776917,357.999756 
	C927.792053,363.999664 927.714783,369.501770 927.844299,374.999023 
	C927.995239,381.408569 930.247742,383.949921 936.390320,382.967255 
	C943.235657,381.872162 941.935486,386.766449 942.748840,390.229736 
	C943.726013,394.390472 942.486267,397.137085 937.709045,397.077087 
	C933.096741,397.019196 928.382874,397.393280 923.898132,396.571136 
	C916.537903,395.221802 913.417969,389.538177 912.218689,382.314392 
	C911.432617,382.787842 910.969604,382.912476 910.763062,383.213257 
	C900.365723,398.355286 885.284790,400.965973 868.731384,398.163727 
	C854.308044,395.722046 845.224182,385.424805 844.117432,371.825134 
	C842.726440,354.732391 849.630737,341.976227 864.051880,337.043762 
	C873.780762,333.716125 883.960266,331.707977 893.932434,329.087769 
	C895.862305,328.580719 897.795349,328.057587 899.675842,327.396362 
	C907.218018,324.744232 910.027466,320.303253 909.155579,312.545441 
	C908.430664,306.095032 903.864075,301.728851 896.719116,300.979889 
	C882.439331,299.483002 869.928589,302.940918 860.405701,314.386169 
	C859.559448,315.403198 858.834229,316.520874 857.270264,318.664215 
	C853.780334,313.710449 850.810852,309.832397 848.330566,305.663361 
	C847.885986,304.916077 849.147827,302.665131 850.152710,301.617981 
	C863.172363,288.050385 879.584961,284.213776 897.630493,285.574005 
	C905.213867,286.145660 912.354492,288.265717 918.194885,293.557892 
	C925.749329,300.403320 927.511963,309.531891 927.731262,319.001953 
	C928.028381,331.828064 927.786560,344.666595 927.776917,357.999756 
M883.406677,384.262939 
	C894.518860,384.103912 902.534607,378.904755 906.995972,368.860138 
	C911.163147,359.478058 910.036926,349.457764 909.951721,340.111664 
	C898.023010,343.200531 886.437866,345.923309 875.023071,349.233429 
	C863.354187,352.617188 858.333679,363.764252 863.354553,374.545715 
	C867.132019,382.657104 874.254517,384.646484 883.406677,384.262939 
z"/>
<path fill="#A96AC7" opacity="1.000000" stroke="none" 
	d="
M1231.016357,301.188660 
	C1231.000000,300.982910 1230.983643,300.777130 1231.288086,300.013214 
	C1231.740723,295.074982 1231.963501,290.695374 1231.986938,286.314667 
	C1232.042969,275.834473 1232.041382,265.353638 1231.993896,254.873337 
	C1231.956665,246.645630 1232.598999,246.351456 1240.879395,245.864716 
	C1246.214600,245.551102 1247.125977,247.492645 1247.104980,252.340729 
	C1246.922485,294.274963 1247.000244,336.210297 1246.999756,378.145325 
	C1246.999634,382.638336 1247.132690,387.138519 1246.898926,391.619476 
	C1246.839478,392.757874 1245.671387,394.734100 1244.905518,394.787445 
	C1241.283936,395.039795 1237.479614,395.286102 1234.069092,394.343994 
	C1233.056519,394.064240 1233.120361,389.907440 1232.679443,387.529297 
	C1232.469116,386.393860 1232.343262,385.226105 1231.978516,384.140350 
	C1231.536011,382.823120 1230.881836,381.576996 1230.319214,380.300140 
	C1228.973145,381.031403 1227.213257,381.437073 1226.343384,382.542908 
	C1213.718506,398.591217 1190.295410,402.418579 1173.459717,390.894958 
	C1169.676758,388.305664 1166.309937,385.108490 1162.751465,382.191162 
	C1162.751465,382.191193 1162.767212,382.226807 1162.815674,381.861511 
	C1161.825073,380.057983 1160.785767,378.619720 1159.746582,377.181488 
	C1159.746582,377.181488 1159.821533,377.234619 1159.863525,376.824280 
	C1154.853882,363.595001 1153.207275,350.216034 1154.082642,336.591034 
	C1154.793579,325.527130 1156.958496,314.720093 1162.970093,305.073608 
	C1164.653809,302.371704 1166.290405,299.640442 1167.948730,296.922607 
	C1167.948608,296.922577 1167.998291,296.993011 1168.280029,296.968445 
	C1168.987915,296.549011 1169.414185,296.154144 1169.840332,295.759277 
	C1169.840332,295.759277 1169.758667,295.807648 1170.123291,295.832458 
	C1170.959961,295.717804 1171.514771,295.693542 1171.892212,295.422363 
	C1186.125732,285.197601 1201.163086,283.804535 1216.699341,291.916718 
	C1220.392944,293.845337 1223.191650,297.431519 1226.608398,299.978455 
	C1227.746216,300.826630 1229.528564,300.809998 1231.016357,301.188660 
M1184.310181,380.458252 
	C1185.538452,380.974182 1186.766846,381.490112 1188.438477,382.585449 
	C1194.915405,386.303284 1202.128418,385.983032 1208.692871,384.292053 
	C1214.841553,382.708191 1221.237061,379.908447 1224.625610,372.683807 
	C1225.060547,371.424744 1225.495483,370.165710 1225.974365,368.985870 
	C1225.974365,368.985870 1225.887085,368.961853 1226.546997,368.705658 
	C1228.035767,365.307251 1230.364868,362.020752 1230.835205,358.486816 
	C1231.766724,351.490967 1232.470947,344.279663 1231.784180,337.303589 
	C1231.036865,329.711670 1228.856567,322.212830 1226.732422,314.837158 
	C1226.183472,312.930908 1223.504761,311.637939 1221.312134,309.830170 
	C1220.856079,309.276794 1220.400024,308.723419 1219.925415,307.436584 
	C1218.421143,306.022705 1217.101929,304.308624 1215.380493,303.247223 
	C1208.144043,298.785461 1199.905151,299.099304 1192.208252,300.402069 
	C1185.729614,301.498657 1178.994507,304.211548 1177.039917,312.044037 
	C1177.039917,312.044037 1177.132568,312.048248 1176.460938,312.303009 
	C1176.026123,313.342255 1175.591309,314.381500 1175.236328,315.692535 
	C1175.236328,315.692535 1175.163208,315.966248 1174.663086,316.169006 
	C1174.440063,316.441223 1174.217041,316.713470 1173.442627,317.463776 
	C1172.290039,321.751617 1170.410400,325.994141 1170.140015,330.336945 
	C1169.618164,338.715759 1169.351685,347.222565 1170.259399,355.536499 
	C1170.806274,360.544098 1170.433838,366.682495 1175.998047,369.997437 
	C1175.998047,369.997437 1176.023560,369.952881 1176.002197,370.732330 
	C1175.908569,373.687927 1176.941406,375.727081 1180.623047,376.080109 
	C1180.869995,376.246124 1181.018921,376.475739 1181.075562,377.512024 
	C1182.129028,378.250580 1183.182373,378.989136 1184.235474,379.850128 
	C1184.235474,379.850128 1184.163818,379.750885 1184.310181,380.458252 
z"/>
<path fill="#272A4B" opacity="1.000000" stroke="none" 
	d="
M1284.980835,378.997894 
	C1284.980835,378.997894 1284.786987,378.881317 1284.825195,378.359406 
	C1276.326172,358.364563 1275.761597,338.351715 1281.049194,318.026581 
	C1282.152100,313.787170 1284.013306,309.745026 1285.525146,305.612000 
	C1285.668457,305.712433 1285.811646,305.812836 1286.109619,305.770508 
	C1287.507812,303.746246 1288.751221,301.864716 1289.994629,299.983215 
	C1290.475708,299.387726 1290.956665,298.792206 1292.029907,298.059875 
	C1292.922852,297.459442 1293.223511,296.995819 1293.524292,296.532196 
	C1293.524292,296.532196 1293.664551,296.614716 1293.978760,296.669617 
	C1295.186768,295.800476 1296.080444,294.876465 1296.974121,293.952484 
	C1296.974121,293.952515 1296.987549,294.006592 1297.349609,293.992981 
	C1298.808716,293.651337 1299.987061,293.482971 1300.990234,292.971191 
	C1315.347900,285.647491 1330.049683,285.077637 1345.123535,290.511841 
	C1346.784424,291.110565 1348.611206,291.249023 1350.361084,291.601013 
	C1350.361084,291.600983 1350.074829,291.822205 1350.215576,292.057861 
	C1351.573486,292.861023 1352.790405,293.428558 1354.007446,293.996094 
	C1354.007446,293.996094 1354.000000,294.000000 1354.033813,294.343079 
	C1354.367310,295.265656 1354.538208,295.981201 1354.985718,296.404297 
	C1362.568970,303.574524 1366.216064,312.503540 1367.082153,322.773407 
	C1367.176270,323.889954 1368.286011,324.920868 1368.924805,325.991516 
	C1368.982300,326.160614 1369.039917,326.329742 1368.748047,326.783875 
	C1368.067627,327.485352 1367.736572,327.901855 1367.405518,328.318420 
	C1367.951782,328.552856 1368.498047,328.787262 1369.044189,329.021667 
	C1369.103394,332.747284 1369.162598,336.472870 1368.812988,340.742371 
	C1367.602173,342.517120 1366.800171,343.747955 1365.529785,344.983826 
	C1343.596069,344.991119 1322.130859,344.967773 1300.665894,345.040192 
	C1298.779907,345.046570 1296.895996,345.680206 1295.011108,346.022491 
	C1295.011108,346.022491 1295.052612,346.000183 1294.666260,346.086853 
	C1293.924683,346.498962 1293.295288,346.793274 1293.254272,347.154327 
	C1292.159912,356.800049 1294.997437,365.463837 1300.127808,373.469574 
	C1300.638550,374.266418 1302.090576,374.459930 1303.105835,374.933441 
	C1303.105835,374.933441 1303.018311,374.975616 1303.057617,375.297791 
	C1304.156250,376.332947 1305.215576,377.045929 1306.274780,377.758911 
	C1306.274780,377.758881 1306.156738,377.811432 1306.251465,378.052887 
	C1306.904419,378.525726 1307.462769,378.757080 1308.020996,378.988434 
	C1308.020996,378.988434 1308.000610,379.002441 1308.054443,379.342438 
	C1318.781616,388.799683 1337.669800,387.364868 1347.016235,379.329773 
	C1347.411499,378.989899 1347.369263,378.141205 1347.530762,377.529541 
	C1347.590210,377.690155 1347.649658,377.850769 1347.927490,377.793640 
	C1348.289551,377.247498 1348.433228,376.919189 1348.576904,376.590851 
	C1348.694580,376.727264 1348.812256,376.863647 1349.051147,376.801758 
	C1349.341309,376.280792 1349.510254,375.958038 1349.679199,375.635254 
	C1349.679077,375.635254 1349.804688,375.808411 1350.006592,375.715912 
	C1350.344971,375.285858 1350.481689,374.948273 1350.618286,374.610718 
	C1350.618286,374.610718 1350.814575,374.874786 1351.006836,374.749695 
	C1351.472534,374.102234 1351.745972,373.579803 1352.019409,373.057404 
	C1352.163086,372.761383 1352.306763,372.465363 1353.038818,372.023987 
	C1353.940918,371.125305 1354.254517,370.371948 1354.568237,369.618591 
	C1354.568237,369.618591 1354.961426,369.875336 1355.212769,369.848206 
	C1359.293213,370.834717 1363.122437,371.848389 1367.433105,372.989563 
	C1366.046387,375.747833 1365.276245,377.374207 1364.422729,378.955597 
	C1362.972778,381.642517 1361.470093,384.301056 1359.989380,386.971497 
	C1359.812378,387.256714 1359.635376,387.541931 1358.850220,387.913452 
	C1356.581665,389.456146 1354.921509,390.912476 1353.261353,392.368835 
	C1353.261353,392.368866 1353.185425,392.218750 1352.866943,392.199341 
	C1337.081177,398.269501 1321.408447,399.029297 1305.507568,394.008698 
	C1303.322998,393.318939 1301.121094,392.684570 1298.927124,392.024567 
	C1298.927124,392.024567 1298.496338,392.024719 1298.496338,392.024719 
	C1298.496338,392.024719 1298.102661,391.849823 1297.919189,391.306305 
	C1296.153687,389.843658 1294.571655,388.924530 1292.989502,388.005402 
	C1292.989502,388.005402 1293.000000,388.000000 1292.965576,387.657532 
	C1290.281128,384.542664 1287.630981,381.770294 1284.980835,378.997894 
M1295.187134,332.807648 
	C1296.021973,333.202393 1296.855469,333.938202 1297.691895,333.941528 
	C1314.672607,334.008942 1331.653931,334.030426 1348.634155,333.906677 
	C1349.757446,333.898499 1350.871826,332.655670 1352.086304,331.101715 
	C1351.679077,327.300537 1351.601929,323.428162 1350.800415,319.712036 
	C1348.695068,309.951538 1343.049805,303.365479 1333.031494,300.954926 
	C1312.140137,295.928162 1294.893555,309.992828 1295.187134,332.807648 
z"/>
<path fill="#74A0C7" opacity="1.000000" stroke="none" 
	d="
M1057.673096,298.724792 
	C1064.899780,289.447784 1074.797241,286.549377 1085.503174,285.486450 
	C1099.948120,284.052246 1113.329102,286.429413 1124.675415,296.380463 
	C1127.785645,299.108307 1128.442505,301.443756 1125.293091,304.533844 
	C1122.945190,306.837646 1120.881958,309.431793 1118.383179,312.244141 
	C1110.681519,305.009155 1102.012207,300.696167 1091.779785,300.443787 
	C1087.843018,300.346741 1083.762695,300.634796 1079.964478,301.599792 
	C1074.119873,303.084656 1070.611816,307.139282 1069.983643,313.318420 
	C1069.365601,319.396576 1072.148071,325.153107 1078.013184,327.500366 
	C1083.989868,329.892303 1090.430542,331.101715 1096.607422,333.023193 
	C1103.411987,335.139832 1110.479004,336.792786 1116.840332,339.870209 
	C1128.049683,345.293091 1132.498535,354.996399 1132.108154,367.320831 
	C1131.733521,379.145050 1127.320557,388.682800 1116.263306,393.496765 
	C1097.880859,401.499969 1079.439697,401.371033 1061.494751,391.635345 
	C1061.203369,391.477295 1060.940186,391.266937 1060.664307,391.080566 
	C1046.870728,381.762970 1046.741455,377.353088 1060.661621,366.875580 
	C1063.139282,369.517822 1065.596924,372.379303 1068.303711,374.981659 
	C1077.754639,384.067657 1097.553589,385.999817 1107.892090,378.943176 
	C1116.962402,372.752075 1116.955566,360.104767 1107.597046,354.359680 
	C1104.266113,352.314789 1100.314697,351.172211 1096.528198,350.000305 
	C1088.434814,347.495483 1080.052979,345.792267 1072.166870,342.774231 
	C1052.452393,335.229431 1046.416626,316.692291 1057.673096,298.724792 
z"/>
<path fill="#74A0C7" opacity="1.000000" stroke="none" 
	d="
M980.448914,397.731201 
	C970.834473,395.723511 962.690491,391.858734 956.326233,384.742554 
	C950.751343,378.508972 950.783264,377.379761 956.841064,371.853943 
	C958.668030,370.187378 960.643677,368.683838 962.868591,366.843109 
	C964.821167,368.950989 966.545349,370.919647 968.381958,372.777161 
	C978.251160,382.758942 994.328918,386.250549 1007.177124,380.842651 
	C1012.791260,378.479614 1016.845947,374.540222 1017.149536,367.748566 
	C1017.463318,360.731293 1014.632263,355.510437 1008.186218,353.128021 
	C1001.351990,350.602081 994.080811,349.280701 987.167725,346.939392 
	C980.427917,344.656769 973.372925,342.612640 967.377869,338.953857 
	C949.983887,328.338501 950.801636,301.561554 968.426208,291.344269 
	C984.626526,281.952667 1009.754822,282.976471 1023.894226,293.855896 
	C1026.271484,295.684998 1030.012207,299.418152 1029.463135,300.684174 
	C1027.823608,304.463989 1024.517944,307.610901 1021.464478,310.597565 
	C1020.967102,311.083984 1018.190063,309.826874 1016.898926,308.820892 
	C1007.408264,301.425995 996.754211,298.868896 984.983337,300.893372 
	C978.169250,302.065338 973.900696,306.055084 972.913818,311.832611 
	C971.744995,318.675629 974.229614,324.554535 980.899719,327.436066 
	C986.791016,329.981140 993.253052,331.192657 999.439758,333.069733 
	C1005.318359,334.853333 1011.413879,336.186188 1016.978821,338.686066 
	C1030.014771,344.542023 1035.859253,355.049133 1034.774292,369.213440 
	C1033.759521,382.461304 1026.132568,392.003418 1012.970276,396.071716 
	C1002.447754,399.324188 991.698730,399.622894 980.448914,397.731201 
z"/>
<path fill="#282A4A" opacity="1.000000" stroke="none" 
	d="
M1470.921509,335.029541 
	C1463.683350,354.571106 1456.470703,373.705292 1449.505737,392.929291 
	C1448.406006,395.964874 1447.021606,397.087311 1443.822632,396.918304 
	C1438.838623,396.654999 1433.813477,396.608307 1428.837524,396.942932 
	C1425.353638,397.177216 1423.878784,395.783447 1422.726074,392.679474 
	C1413.238281,367.129242 1403.598755,341.635345 1394.009888,316.122589 
	C1390.572021,306.975372 1387.147461,297.823090 1383.449463,287.959991 
	C1389.340088,287.959991 1394.624756,287.605621 1399.806030,288.181274 
	C1401.312134,288.348602 1403.086914,290.963135 1403.783569,292.815155 
	C1413.616577,318.955841 1423.277832,345.161072 1433.005859,371.341370 
	C1433.792847,373.459534 1434.764038,375.509247 1436.161255,378.793213 
	C1439.660889,369.680817 1442.786987,361.750488 1445.758545,353.762695 
	C1453.467529,333.040771 1461.170898,312.316193 1468.704224,291.530182 
	C1469.744995,288.658142 1471.177002,287.736176 1474.105347,287.897736 
	C1478.409424,288.135223 1482.736450,287.958984 1487.887695,287.958984 
	C1482.142578,303.870789 1476.585571,319.261292 1470.921509,335.029541 
z"/>
<path fill="#A479B7" opacity="1.000000" stroke="none" 
	d="
M1162.758789,382.540222 
	C1166.309937,385.108490 1169.676758,388.305664 1173.459717,390.894958 
	C1190.295410,402.418579 1213.718506,398.591217 1226.343384,382.542908 
	C1227.213257,381.437073 1228.973145,381.031403 1230.319214,380.300140 
	C1230.881836,381.576996 1231.536011,382.823120 1231.978516,384.140350 
	C1232.343262,385.226105 1232.469116,386.393860 1232.679443,387.529297 
	C1233.120361,389.907440 1233.056519,394.064240 1234.069092,394.343994 
	C1237.479614,395.286102 1241.283936,395.039795 1244.905518,394.787445 
	C1245.671387,394.734100 1246.839478,392.757874 1246.898926,391.619476 
	C1247.132690,387.138519 1246.999634,382.638336 1246.999756,378.145325 
	C1247.000244,336.210297 1246.922485,294.274963 1247.104980,252.340729 
	C1247.125977,247.492645 1246.214600,245.551102 1240.879395,245.864716 
	C1232.598999,246.351456 1231.956665,246.645630 1231.993896,254.873337 
	C1232.041382,265.353638 1232.042969,275.834473 1231.986938,286.314667 
	C1231.963501,290.695374 1231.740723,295.074982 1231.334473,299.707092 
	C1230.870972,286.151489 1230.666138,272.344116 1230.500854,258.536285 
	C1230.445557,253.909439 1230.492188,249.281357 1230.492188,244.340668 
	C1236.692017,244.340668 1242.413452,244.340668 1248.510376,244.340668 
	C1248.510376,295.107300 1248.510376,345.646729 1248.510376,396.619354 
	C1242.968994,396.619354 1237.408203,396.619354 1231.255981,396.619354 
	C1231.056641,392.103760 1230.850708,387.438843 1230.644653,382.773895 
	C1230.293335,382.317169 1229.942017,381.860443 1229.590698,381.403717 
	C1217.927002,399.309479 1201.505127,401.968201 1182.966553,397.281982 
	C1174.461548,395.132111 1167.512817,390.474792 1162.758789,382.540222 
z"/>
<path fill="#A479B7" opacity="1.000000" stroke="none" 
	d="
M1167.645752,297.067139 
	C1166.290405,299.640442 1164.653809,302.371704 1162.970093,305.073608 
	C1156.958496,314.720093 1154.793579,325.527130 1154.082642,336.591034 
	C1153.207275,350.216034 1154.853882,363.595001 1159.816650,376.810364 
	C1157.814575,372.351379 1155.234253,367.644379 1154.114502,362.612366 
	C1150.923096,348.270233 1151.327026,333.856995 1154.815430,319.552368 
	C1156.916870,310.934357 1160.909790,303.393005 1167.645752,297.067139 
z"/>
<path fill="#2D2F45" opacity="1.000000" stroke="none" 
	d="
M1285.270264,305.824585 
	C1284.013306,309.745026 1282.152100,313.787170 1281.049194,318.026581 
	C1275.761597,338.351715 1276.326172,358.364563 1284.828125,378.246368 
	C1279.472046,371.307098 1277.368530,362.817047 1276.449097,354.026520 
	C1274.693359,337.240173 1275.632202,320.866730 1285.270264,305.824585 
z"/>
<path fill="#A479B7" opacity="1.000000" stroke="none" 
	d="
M1230.660156,301.176208 
	C1229.528564,300.809998 1227.746216,300.826630 1226.608398,299.978455 
	C1223.191650,297.431519 1220.392944,293.845337 1216.699341,291.916718 
	C1201.163086,283.804535 1186.125732,285.197601 1171.892212,295.422363 
	C1171.514771,295.693542 1170.959961,295.717804 1170.117920,295.785278 
	C1176.040649,287.969391 1184.963867,286.010620 1194.124878,285.221375 
	C1207.929688,284.032074 1219.778442,288.137848 1228.457397,299.556030 
	C1228.940918,300.192200 1229.682495,300.632355 1230.660156,301.176208 
z"/>
<path fill="#2D2F45" opacity="1.000000" stroke="none" 
	d="
M1350.137939,291.348938 
	C1348.611206,291.249023 1346.784424,291.110565 1345.123535,290.511841 
	C1330.049683,285.077637 1315.347900,285.647491 1300.990234,292.971191 
	C1299.987061,293.482971 1298.808716,293.651337 1297.329346,293.973785 
	C1314.053955,282.887970 1331.724976,282.207977 1350.137939,291.348938 
z"/>
<path fill="#2D2F45" opacity="1.000000" stroke="none" 
	d="
M1299.130615,392.300446 
	C1301.121094,392.684570 1303.322998,393.318939 1305.507568,394.008698 
	C1321.408447,399.029297 1337.081177,398.269501 1352.937012,392.245667 
	C1342.811279,399.058075 1331.036499,400.007538 1319.215820,398.494049 
	C1312.446899,397.627380 1305.952271,394.619934 1299.130615,392.300446 
z"/>
<path fill="#2D2F45" opacity="1.000000" stroke="none" 
	d="
M1347.218384,377.679749 
	C1347.369263,378.141205 1347.411499,378.989899 1347.016235,379.329773 
	C1337.669800,387.364868 1318.781616,388.799683 1308.058716,379.331879 
	C1321.179810,385.520264 1334.188477,386.591888 1347.218384,377.679749 
z"/>
<path fill="#1E1F35" opacity="1.000000" stroke="none" 
	d="
M1295.476807,346.070618 
	C1296.895996,345.680206 1298.779907,345.046570 1300.665894,345.040192 
	C1322.130859,344.967773 1343.596069,344.991119 1365.811279,345.002625 
	C1367.026733,345.286957 1367.492310,345.557526 1367.957764,345.828125 
	C1349.087524,345.933624 1330.217285,346.046967 1311.347046,346.139557 
	C1306.212280,346.164734 1301.077393,346.127380 1295.476807,346.070618 
z"/>
<path fill="#2D2F45" opacity="1.000000" stroke="none" 
	d="
M1368.995361,325.556396 
	C1368.286011,324.920868 1367.176270,323.889954 1367.082153,322.773407 
	C1366.216064,312.503540 1362.568970,303.574524 1354.985718,296.404297 
	C1354.538208,295.981201 1354.367310,295.265656 1354.035400,294.339752 
	C1365.037231,301.459534 1367.575073,313.037109 1368.995361,325.556396 
z"/>
<path fill="#2D2F45" opacity="1.000000" stroke="none" 
	d="
M1302.980225,374.610291 
	C1302.090576,374.459930 1300.638550,374.266418 1300.127808,373.469574 
	C1294.997437,365.463837 1292.159912,356.800049 1293.254272,347.154327 
	C1293.295288,346.793274 1293.924683,346.498962 1294.676392,346.108154 
	C1293.829346,356.514771 1296.152832,366.004089 1302.980225,374.610291 
z"/>
<path fill="#2D2F45" opacity="1.000000" stroke="none" 
	d="
M1360.288574,386.823975 
	C1361.470093,384.301056 1362.972778,381.642517 1364.422729,378.955597 
	C1365.276245,377.374207 1366.046387,375.747833 1367.433105,372.989563 
	C1363.122437,371.848389 1359.293213,370.834717 1355.025635,369.706360 
	C1355.242676,367.220398 1356.398682,366.283630 1358.882690,367.665680 
	C1362.019531,369.410919 1365.293701,370.909637 1369.621094,373.070190 
	C1366.445801,377.852844 1363.516846,382.264618 1360.288574,386.823975 
z"/>
<path fill="#2D2F45" opacity="1.000000" stroke="none" 
	d="
M1285.048584,379.336609 
	C1287.630981,381.770294 1290.281128,384.542664 1292.963379,387.662445 
	C1290.369019,385.231628 1287.742798,382.453461 1285.048584,379.336609 
z"/>
<path fill="#2D2F45" opacity="1.000000" stroke="none" 
	d="
M1368.265503,345.771179 
	C1367.492310,345.557526 1367.026733,345.286957 1366.279785,344.997559 
	C1366.800171,343.747955 1367.602173,342.517120 1368.700195,341.143768 
	C1368.855225,342.572235 1368.714233,344.143250 1368.265503,345.771179 
z"/>
<path fill="#2D2F45" opacity="1.000000" stroke="none" 
	d="
M1289.697632,300.128723 
	C1288.751221,301.864716 1287.507812,303.746246 1285.903564,305.608154 
	C1286.828491,303.817108 1288.114624,302.045654 1289.697632,300.128723 
z"/>
<path fill="#2D2F45" opacity="1.000000" stroke="none" 
	d="
M1353.583496,392.275238 
	C1354.921509,390.912476 1356.581665,389.456146 1358.603394,387.992981 
	C1357.278564,389.384644 1355.592163,390.783142 1353.583496,392.275238 
z"/>
<path fill="#A479B7" opacity="1.000000" stroke="none" 
	d="
M1159.741211,377.530823 
	C1160.785767,378.619720 1161.825073,380.057983 1162.794434,381.856567 
	C1161.728516,380.771301 1160.732300,379.325714 1159.741211,377.530823 
z"/>
<path fill="#2D2F45" opacity="1.000000" stroke="none" 
	d="
M1293.162354,388.291260 
	C1294.571655,388.924530 1296.153687,389.843658 1297.799072,391.127502 
	C1296.353271,390.520538 1294.844116,389.548828 1293.162354,388.291260 
z"/>
<path fill="#2D2F45" opacity="1.000000" stroke="none" 
	d="
M1306.126953,377.484009 
	C1305.215576,377.045929 1304.156250,376.332947 1303.082520,375.256042 
	C1304.038330,375.664429 1305.008789,376.436798 1306.126953,377.484009 
z"/>
<path fill="#2D2F45" opacity="1.000000" stroke="none" 
	d="
M1296.670044,294.012726 
	C1296.080444,294.876465 1295.186768,295.800476 1293.939331,296.598511 
	C1294.512451,295.672668 1295.439209,294.872833 1296.670044,294.012726 
z"/>
<path fill="#2D2F45" opacity="1.000000" stroke="none" 
	d="
M1369.150635,328.779602 
	C1368.498047,328.787262 1367.951782,328.552856 1367.405518,328.318420 
	C1367.736572,327.901855 1368.067627,327.485352 1368.675537,327.041840 
	C1369.053955,327.522400 1369.155518,328.029968 1369.150635,328.779602 
z"/>
<path fill="#2D2F45" opacity="1.000000" stroke="none" 
	d="
M1353.828613,293.728516 
	C1352.790405,293.428558 1351.573486,292.861023 1350.341553,291.928040 
	C1351.434448,292.195374 1352.542114,292.828156 1353.828613,293.728516 
z"/>
<path fill="#2D2F45" opacity="1.000000" stroke="none" 
	d="
M1354.324097,369.783936 
	C1354.254517,370.371948 1353.940918,371.125305 1353.271606,371.924316 
	C1353.304077,371.296478 1353.692017,370.622894 1354.324097,369.783936 
z"/>
<path fill="#2D2F45" opacity="1.000000" stroke="none" 
	d="
M1351.776367,373.189819 
	C1351.745972,373.579803 1351.472534,374.102234 1350.886841,374.637146 
	C1350.894165,374.207214 1351.213623,373.764709 1351.776367,373.189819 
z"/>
<path fill="#2D2F45" opacity="1.000000" stroke="none" 
	d="
M1307.865967,378.739685 
	C1307.462769,378.757080 1306.904419,378.525726 1306.263184,377.989349 
	C1306.690552,377.953217 1307.200684,378.222076 1307.865967,378.739685 
z"/>
<path fill="#2D2F45" opacity="1.000000" stroke="none" 
	d="
M1293.278809,296.653564 
	C1293.223511,296.995819 1292.922852,297.459442 1292.303467,297.958954 
	C1292.334229,297.588226 1292.683716,297.181580 1293.278809,296.653564 
z"/>
<path fill="#A479B7" opacity="1.000000" stroke="none" 
	d="
M1169.534058,295.754181 
	C1169.414185,296.154144 1168.987915,296.549011 1168.242554,296.947144 
	C1168.358154,296.549957 1168.792969,296.149536 1169.534058,295.754181 
z"/>
<path fill="#2D2F45" opacity="1.000000" stroke="none" 
	d="
M1350.379883,374.712830 
	C1350.481689,374.948273 1350.344971,375.285858 1349.917236,375.657043 
	C1349.797974,375.398773 1349.969727,375.106873 1350.379883,374.712830 
z"/>
<path fill="#2D2F45" opacity="1.000000" stroke="none" 
	d="
M1349.435425,375.714539 
	C1349.510254,375.958038 1349.341309,376.280792 1348.878174,376.596985 
	C1348.786499,376.324890 1348.989014,376.059357 1349.435425,375.714539 
z"/>
<path fill="#2D2F45" opacity="1.000000" stroke="none" 
	d="
M1348.351929,376.677368 
	C1348.433228,376.919189 1348.289551,377.247498 1347.851562,377.548584 
	C1347.652466,377.197723 1347.842407,376.945221 1348.351929,376.677368 
z"/>
<path fill="#FAFDFE" opacity="1.000000" stroke="none" 
	d="
M882.937500,384.268097 
	C874.254517,384.646484 867.132019,382.657104 863.354553,374.545715 
	C858.333679,363.764252 863.354187,352.617188 875.023071,349.233429 
	C886.437866,345.923309 898.023010,343.200531 909.951721,340.111664 
	C910.036926,349.457764 911.163147,359.478058 906.995972,368.860138 
	C902.534607,378.904755 894.518860,384.103912 882.937500,384.268097 
z"/>
<path fill="#FEFCFE" opacity="1.000000" stroke="none" 
	d="
M1219.943970,308.170044 
	C1220.400024,308.723419 1220.856079,309.276794 1221.677979,310.279144 
	C1224.395874,316.315002 1227.781860,321.704468 1228.893799,327.528107 
	C1231.556030,341.470459 1231.361206,355.478607 1225.887085,368.961853 
	C1225.887085,368.961853 1225.974365,368.985870 1225.699341,369.125916 
	C1224.944336,370.165436 1224.464355,371.064911 1223.702148,372.140717 
	C1213.765991,383.860687 1201.594116,385.387970 1187.698853,381.025513 
	C1186.325439,380.468506 1185.244629,380.109680 1184.163818,379.750885 
	C1184.163818,379.750885 1184.235474,379.850128 1184.172607,379.480347 
	C1183.096436,378.330048 1182.083008,377.549500 1181.069580,376.768982 
	C1181.018921,376.475739 1180.869995,376.246124 1180.300293,375.691284 
	C1178.659424,373.519226 1177.341553,371.736053 1176.023560,369.952881 
	C1176.023560,369.952881 1175.998047,369.997437 1175.968994,369.615356 
	C1168.923096,351.939972 1169.706665,334.510254 1175.123535,316.750793 
	C1175.201416,316.322327 1175.182251,316.144287 1175.163208,315.966248 
	C1175.163208,315.966248 1175.236328,315.692535 1175.503174,315.390350 
	C1176.224243,314.074860 1176.678345,313.061523 1177.132568,312.048218 
	C1177.132568,312.048248 1177.039917,312.044037 1177.377686,311.978516 
	C1182.006836,306.897308 1186.824463,302.942230 1193.721802,301.818085 
	C1203.453857,300.231903 1212.137817,302.192627 1219.943970,308.170044 
z"/>
<path fill="#A376B6" opacity="1.000000" stroke="none" 
	d="
M1226.217041,368.833740 
	C1231.361206,355.478607 1231.556030,341.470459 1228.893799,327.528107 
	C1227.781860,321.704468 1224.395874,316.315002 1221.924194,310.395691 
	C1223.504761,311.637939 1226.183472,312.930908 1226.732422,314.837158 
	C1228.856567,322.212830 1231.036865,329.711670 1231.784180,337.303589 
	C1232.470947,344.279663 1231.766724,351.490967 1230.835205,358.486816 
	C1230.364868,362.020752 1228.035767,365.307251 1226.217041,368.833740 
z"/>
<path fill="#A277B4" opacity="1.000000" stroke="none" 
	d="
M1175.026245,317.001221 
	C1169.706665,334.510254 1168.923096,351.939972 1175.993286,369.607483 
	C1170.433838,366.682495 1170.806274,360.544098 1170.259399,355.536499 
	C1169.351685,347.222565 1169.618164,338.715759 1170.140015,330.336945 
	C1170.410400,325.994141 1172.290039,321.751617 1173.976440,317.230042 
	C1174.682373,316.997955 1174.854370,316.999603 1175.026245,317.001221 
z"/>
<path fill="#A376B6" opacity="1.000000" stroke="none" 
	d="
M1219.934692,307.803314 
	C1212.137817,302.192627 1203.453857,300.231903 1193.721802,301.818085 
	C1186.824463,302.942230 1182.006836,306.897308 1177.399902,312.019226 
	C1178.994507,304.211548 1185.729614,301.498657 1192.208252,300.402069 
	C1199.905151,299.099304 1208.144043,298.785461 1215.380493,303.247223 
	C1217.101929,304.308624 1218.421143,306.022705 1219.934692,307.803314 
z"/>
<path fill="#A479B7" opacity="1.000000" stroke="none" 
	d="
M1187.991455,381.223724 
	C1201.594116,385.387970 1213.765991,383.860687 1223.708984,372.401245 
	C1224.000366,372.659180 1224.002563,372.832886 1224.004883,373.006592 
	C1221.237061,379.908447 1214.841553,382.708191 1208.692871,384.292053 
	C1202.128418,385.983032 1194.915405,386.303284 1188.216553,382.100128 
	C1187.994629,381.614807 1187.991455,381.223724 1187.991455,381.223724 
z"/>
<path fill="#A277B4" opacity="1.000000" stroke="none" 
	d="
M1176.012939,370.342590 
	C1177.341553,371.736053 1178.659424,373.519226 1180.104126,375.616608 
	C1176.941406,375.727081 1175.908569,373.687927 1176.012939,370.342590 
z"/>
<path fill="#A277B4" opacity="1.000000" stroke="none" 
	d="
M1181.072510,377.140503 
	C1182.083008,377.549500 1183.096436,378.330048 1184.172852,379.419159 
	C1183.182373,378.989136 1182.129028,378.250580 1181.072510,377.140503 
z"/>
<path fill="#A277B4" opacity="1.000000" stroke="none" 
	d="
M1187.698853,381.025513 
	C1187.991455,381.223724 1187.994629,381.614807 1187.994873,381.810425 
	C1186.766846,381.490112 1185.538452,380.974182 1184.237061,380.104553 
	C1185.244629,380.109680 1186.325439,380.468506 1187.698853,381.025513 
z"/>
<path fill="#A376B6" opacity="1.000000" stroke="none" 
	d="
M1224.315186,372.845215 
	C1224.002563,372.832886 1224.000366,372.659180 1223.991211,372.224915 
	C1224.464355,371.064911 1224.944336,370.165436 1225.677490,369.086304 
	C1225.495483,370.165710 1225.060547,371.424744 1224.315186,372.845215 
z"/>
<path fill="#A376B6" opacity="1.000000" stroke="none" 
	d="
M1176.796631,312.175598 
	C1176.678345,313.061523 1176.224243,314.074860 1175.463257,315.254456 
	C1175.591309,314.381500 1176.026123,313.342255 1176.796631,312.175598 
z"/>
<path fill="#A376B6" opacity="1.000000" stroke="none" 
	d="
M1175.123535,316.750793 
	C1174.854370,316.999603 1174.682373,316.997955 1174.252197,316.991028 
	C1174.217041,316.713470 1174.440063,316.441223 1174.913086,316.067627 
	C1175.182251,316.144287 1175.201416,316.322327 1175.123535,316.750793 
z"/>
<path fill="#FBFCFD" opacity="1.000000" stroke="none" 
	d="
M1295.000854,332.016907 
	C1294.893555,309.992828 1312.140137,295.928162 1333.031494,300.954926 
	C1343.049805,303.365479 1348.695068,309.951538 1350.800415,319.712036 
	C1351.601929,323.428162 1351.679077,327.300537 1351.571045,331.567444 
	C1332.370850,332.027771 1313.685791,332.022339 1295.000854,332.016907 
z"/>
<path fill="#1E1F35" opacity="1.000000" stroke="none" 
	d="
M1295.093994,332.412292 
	C1313.685791,332.022339 1332.370850,332.027771 1351.522949,332.010162 
	C1350.871826,332.655670 1349.757446,333.898499 1348.634155,333.906677 
	C1331.653931,334.030426 1314.672607,334.008942 1297.691895,333.941528 
	C1296.855469,333.938202 1296.021973,333.202393 1295.093994,332.412292 
z"/>
</svg>