<svg version="1.1" id="Layer_1" xmlns="http://www.w3.org/2000/svg" xmlns:xlink="http://www.w3.org/1999/xlink" x="0px" y="0px"
	 width="100%" viewBox="0 0 606 190" enable-background="new 0 0 606 190" xml:space="preserve">
<path fill="#FAF9F5" opacity="1.000000" stroke="none" 
	d="
M435.000000,191.000000 
	C290.045380,191.000000 145.590744,191.000000 1.068059,191.000000 
	C1.068059,127.731987 1.068059,64.463882 1.068059,1.097889 
	C202.999985,1.097889 404.999969,1.097889 606.972900,1.097889 
	C606.972900,64.409195 606.972900,127.704605 606.972900,191.000000 
	C549.797241,191.000000 492.648621,191.000000 435.000000,191.000000 
M74.808678,74.125107 
	C83.070412,75.032616 86.007698,78.132133 86.063812,86.261459 
	C86.130508,95.923256 86.083794,105.585846 86.085648,115.248093 
	C86.086433,119.347534 86.085785,123.446976 86.085785,127.656052 
	C92.729515,127.656052 98.623894,127.656052 104.387779,127.656052 
	C104.639000,127.011673 104.857101,126.712082 104.858360,126.411575 
	C104.910835,113.919601 105.112755,101.424728 104.904205,88.936760 
	C104.807846,83.166092 106.393730,78.510765 111.879860,74.981972 
	C120.813293,72.627342 126.526772,76.762566 126.862183,86.186966 
	C127.122726,93.507996 126.930641,100.845238 126.934906,108.175270 
	C126.938652,114.613991 126.935699,121.052704 126.935699,127.587891 
	C133.626404,127.587891 139.661026,127.587891 145.903961,127.587891 
	C145.903961,110.866898 146.309448,94.543579 145.740387,78.254311 
	C145.435822,69.535980 140.784119,62.715878 132.123276,59.707191 
	C123.621902,56.753902 115.463783,57.103821 107.844681,63.906742 
	C105.957825,66.015442 104.070961,68.124138 102.170784,70.247726 
	C95.266487,58.084190 84.044220,54.509789 72.266602,61.025730 
	C69.672676,63.381554 67.078751,65.737381 63.932465,68.594856 
	C63.932465,65.247665 63.932465,62.505421 63.932465,59.623112 
	C57.429604,59.623112 51.396320,59.623112 45.435936,59.623112 
	C45.435936,82.584442 45.435936,105.113625 45.435936,127.688354 
	C51.764977,127.688354 57.678116,127.688354 64.156845,127.688354 
	C64.156845,125.596581 64.156792,123.814049 64.156853,122.031509 
	C64.157211,111.549698 64.075996,101.067039 64.185829,90.586372 
	C64.262672,83.252945 65.694550,76.576134 74.808678,74.125107 
M387.206299,59.018116 
	C377.036346,56.525856 368.166809,58.596020 360.885315,66.425919 
	C348.849915,79.367737 349.357880,109.864441 361.843567,122.315514 
	C369.200378,129.651917 381.021240,131.671036 391.036041,127.092224 
	C394.306458,124.740433 397.576904,122.388634 400.904846,119.995468 
	C401.032288,122.340538 401.171844,124.909004 401.319550,127.627663 
	C407.875946,127.627663 414.078766,127.627663 420.462158,127.627663 
	C420.462158,97.011925 420.462158,66.778946 420.462158,35.992393 
	C417.360870,35.992393 414.574249,35.992111 411.787628,35.992447 
	C401.073944,35.993732 401.073944,35.993805 401.073944,46.720921 
	C401.073944,53.893143 401.073944,61.065365 401.073944,67.335678 
	C396.584778,64.576019 392.292542,61.937435 387.206299,59.018116 
M477.374268,106.334923 
	C476.107941,107.545547 474.749817,108.674835 473.591705,109.981392 
	C469.403442,114.706497 462.582581,116.151443 456.192017,113.578514 
	C450.829620,111.419525 447.675140,105.918625 448.199829,98.708031 
	C463.301727,98.708031 478.484497,98.708031 493.556610,98.708031 
	C496.381104,70.569077 478.758698,53.906948 452.519226,58.999943 
	C439.549927,61.517246 431.072510,70.919304 428.594147,87.404892 
	C426.550018,101.002350 428.861176,113.999840 440.582245,122.928909 
	C451.741394,131.429916 464.542938,131.322983 477.087067,126.563950 
	C485.687775,123.300972 491.348358,116.776619 493.189423,106.286072 
	C487.750275,106.286072 482.984955,106.286072 477.374268,106.334923 
M200.683075,128.003494 
	C205.297745,128.003494 209.912415,128.003494 214.862808,128.003494 
	C214.862808,110.446777 215.074142,93.494659 214.663040,76.557648 
	C214.591202,73.597961 212.317719,70.379982 210.349396,67.830803 
	C200.626587,55.238647 175.980484,55.553711 164.510162,64.212067 
	C159.219620,68.205620 155.884857,73.555763 156.250900,81.039856 
	C160.540680,81.039856 164.357254,80.911995 168.160828,81.079414 
	C171.329514,81.218880 173.560059,80.811066 175.395157,77.469688 
	C177.862213,72.977654 185.385635,71.857849 190.746292,74.338936 
	C194.696625,76.167282 196.355927,80.252045 195.297119,85.776962 
	C187.596405,86.533211 179.797516,86.954712 172.114777,88.133301 
	C160.217468,89.958427 153.177338,97.194962 152.969727,107.035484 
	C152.729980,118.399582 158.594391,126.380547 169.702057,128.525848 
	C179.713745,130.459473 188.836563,128.392273 195.299469,119.855362 
	C197.679855,122.388847 192.741516,128.225052 200.683075,128.003494 
M281.558167,114.746170 
	C285.509735,101.768486 281.524292,93.989258 268.569611,89.735466 
	C265.113037,88.600471 261.501160,87.946220 257.983002,86.988914 
	C253.838013,85.861046 249.501328,85.114487 245.641922,83.343605 
	C241.017487,81.221703 241.266525,76.106346 245.729752,73.602364 
	C251.902573,70.139244 259.486816,72.379005 262.806427,78.520378 
	C263.342163,79.511513 264.466919,80.830193 265.369446,80.870255 
	C270.473145,81.096809 275.592102,80.979774 280.639038,80.979774 
	C281.298370,71.361534 275.002686,63.118721 265.435242,60.095821 
	C256.403534,57.242195 247.421082,57.457104 238.441544,60.168808 
	C229.859177,62.760563 223.706757,70.312744 223.275955,78.654221 
	C222.825348,87.379204 227.827408,94.433968 237.082916,97.829346 
	C239.717163,98.795715 242.508499,99.341011 245.238464,100.037666 
	C249.895004,101.225952 254.689606,102.022575 259.186066,103.648018 
	C263.987793,105.383812 264.729462,110.594826 260.976318,113.463234 
	C256.030579,117.243103 245.205185,115.172325 241.838394,109.894150 
	C241.105682,108.745468 239.980316,107.061325 238.965057,107.009483 
	C233.410568,106.725876 227.834030,106.874367 222.240799,106.874367 
	C222.860428,116.679016 228.438507,124.645927 237.781143,126.819809 
	C245.373825,128.586502 253.565247,129.380051 261.281647,128.581253 
	C269.596588,127.720459 277.299713,123.959457 281.558167,114.746170 
M328.894714,108.635727 
	C328.345551,113.125000 325.209320,114.752998 321.287628,115.074989 
	C315.918030,115.515869 310.508972,115.742348 307.137878,110.155960 
	C306.422394,108.970299 305.419220,107.101593 304.471588,107.053154 
	C298.764801,106.761429 293.035553,106.908211 287.184204,106.908211 
	C287.721069,113.851677 290.582031,118.729362 295.145325,122.686981 
	C305.802155,131.929413 330.850250,131.597977 341.322266,122.103943 
	C352.999023,111.517677 350.159943,95.857201 335.475708,90.216721 
	C332.858704,89.211479 330.067352,88.649979 327.342163,87.938644 
	C322.058533,86.559479 316.667786,85.496071 311.533295,83.697136 
	C309.963104,83.146996 308.087952,80.585396 308.145416,79.010361 
	C308.215240,77.097191 309.742981,74.559761 311.408081,73.505241 
	C317.133972,69.879059 324.708893,72.383827 328.021484,78.416618 
	C328.577637,79.429482 329.690826,80.805496 330.598572,80.845856 
	C335.824310,81.078163 341.065674,80.959038 346.362762,80.959038 
	C346.078125,71.055603 341.408417,64.646225 333.295807,61.253262 
	C321.496887,56.318569 309.547302,56.529579 298.264954,62.991383 
	C292.880859,66.075027 289.193970,70.691971 288.947052,77.394936 
	C288.537231,88.520081 292.774872,94.863960 303.554443,98.171173 
	C308.929382,99.820229 314.644836,100.413239 319.937988,102.254974 
	C323.144714,103.370750 325.838196,105.961639 328.894714,108.635727 
M534.880798,82.316742 
	C532.488281,90.973747 530.095764,99.630760 527.422302,109.304283 
	C526.691345,107.351219 526.280396,106.469269 526.027161,105.544151 
	C522.259766,91.782127 518.580383,77.995331 514.681335,64.270859 
	C514.163452,62.447983 512.664856,59.605652 511.432800,59.503689 
	C505.419952,59.006065 499.343353,59.278450 492.710175,59.278450 
	C493.414673,61.819260 493.764587,63.406868 494.292084,64.933128 
	C499.661713,80.470184 505.015167,96.013138 510.475159,111.518517 
	C512.392761,116.964012 513.143372,124.405785 517.066345,127.117104 
	C521.047119,129.868378 528.295715,127.742508 534.095032,128.071671 
	C537.205505,128.248199 538.371948,126.974236 539.318481,124.168884 
	C546.271790,103.559563 553.415894,83.014633 560.458862,62.435398 
	C560.748596,61.588928 560.630798,60.602985 560.739197,59.217087 
	C555.259949,59.217087 550.116394,59.387039 544.991028,59.154480 
	C541.826233,59.010887 540.637390,60.356773 539.948669,63.252625 
	C538.490784,69.382599 536.693420,75.431870 534.880798,82.316742 
z"/>
<path fill="#9489C7" opacity="1.000000" stroke="none" 
	d="
M477.796936,106.310501 
	C482.984955,106.286072 487.750275,106.286072 493.189423,106.286072 
	C491.348358,116.776619 485.687775,123.300972 477.087067,126.563950 
	C464.542938,131.322983 451.741394,131.429916 440.582245,122.928909 
	C428.861176,113.999840 426.550018,101.002350 428.594147,87.404892 
	C431.072510,70.919304 439.549927,61.517246 452.519226,58.999943 
	C478.758698,53.906948 496.381104,70.569077 493.556610,98.708031 
	C478.484497,98.708031 463.301727,98.708031 448.199829,98.708031 
	C447.675140,105.918625 450.829620,111.419525 456.192017,113.578514 
	C462.582581,116.151443 469.403442,114.706497 473.591705,109.981392 
	C474.749817,108.674835 476.107941,107.545547 477.796936,106.310501 
M448.055664,84.752815 
	C448.344208,85.111504 448.630707,85.781693 448.921600,85.783585 
	C457.491058,85.839455 466.060974,85.828880 474.667969,85.828880 
	C473.731598,78.203300 469.614197,73.606552 463.460693,72.996552 
	C455.593719,72.216705 450.936890,75.519371 448.055664,84.752815 
z"/>
<path fill="#8A9CCD" opacity="1.000000" stroke="none" 
	d="
M200.211884,128.003021 
	C192.741516,128.225052 197.679855,122.388847 195.299469,119.855362 
	C188.836563,128.392273 179.713745,130.459473 169.702057,128.525848 
	C158.594391,126.380547 152.729980,118.399582 152.969727,107.035484 
	C153.177338,97.194962 160.217468,89.958427 172.114777,88.133301 
	C179.797516,86.954712 187.596405,86.533211 195.297119,85.776962 
	C196.355927,80.252045 194.696625,76.167282 190.746292,74.338936 
	C185.385635,71.857849 177.862213,72.977654 175.395157,77.469688 
	C173.560059,80.811066 171.329514,81.218880 168.160828,81.079414 
	C164.357254,80.911995 160.540680,81.039856 156.250900,81.039856 
	C155.884857,73.555763 159.219620,68.205620 164.510162,64.212067 
	C175.980484,55.553711 200.626587,55.238647 210.349396,67.830803 
	C212.317719,70.379982 214.591202,73.597961 214.663040,76.557648 
	C215.074142,93.494659 214.862808,110.446777 214.862808,128.003494 
	C209.912415,128.003494 205.297745,128.003494 200.211884,128.003021 
M172.966034,103.733765 
	C171.149734,106.916969 171.710419,109.885109 174.204727,112.318626 
	C177.726135,115.754257 184.937973,115.770538 190.040054,112.603134 
	C195.077118,109.476089 196.812134,104.922745 195.110672,98.984200 
	C193.029556,98.984200 190.895660,98.949333 188.763260,98.991043 
	C183.320557,99.097496 177.769531,98.834969 172.966034,103.733765 
z"/>
<path fill="#8C97CB" opacity="1.000000" stroke="none" 
	d="
M281.380188,115.094803 
	C277.299713,123.959457 269.596588,127.720459 261.281647,128.581253 
	C253.565247,129.380051 245.373825,128.586502 237.781143,126.819809 
	C228.438507,124.645927 222.860428,116.679016 222.240799,106.874367 
	C227.834030,106.874367 233.410568,106.725876 238.965057,107.009483 
	C239.980316,107.061325 241.105682,108.745468 241.838394,109.894150 
	C245.205185,115.172325 256.030579,117.243103 260.976318,113.463234 
	C264.729462,110.594826 263.987793,105.383812 259.186066,103.648018 
	C254.689606,102.022575 249.895004,101.225952 245.238464,100.037666 
	C242.508499,99.341011 239.717163,98.795715 237.082916,97.829346 
	C227.827408,94.433968 222.825348,87.379204 223.275955,78.654221 
	C223.706757,70.312744 229.859177,62.760563 238.441544,60.168808 
	C247.421082,57.457104 256.403534,57.242195 265.435242,60.095821 
	C275.002686,63.118721 281.298370,71.361534 280.639038,80.979774 
	C275.592102,80.979774 270.473145,81.096809 265.369446,80.870255 
	C264.466919,80.830193 263.342163,79.511513 262.806427,78.520378 
	C259.486816,72.379005 251.902573,70.139244 245.729752,73.602364 
	C241.266525,76.106346 241.017487,81.221703 245.641922,83.343605 
	C249.501328,85.114487 253.838013,85.861046 257.983002,86.988914 
	C261.501160,87.946220 265.113037,88.600471 268.569611,89.735466 
	C281.524292,93.989258 285.509735,101.768486 281.380188,115.094803 
z"/>
<path fill="#8F92CA" opacity="1.000000" stroke="none" 
	d="
M328.828491,108.262764 
	C325.838196,105.961639 323.144714,103.370750 319.937988,102.254974 
	C314.644836,100.413239 308.929382,99.820229 303.554443,98.171173 
	C292.774872,94.863960 288.537231,88.520081 288.947052,77.394936 
	C289.193970,70.691971 292.880859,66.075027 298.264954,62.991383 
	C309.547302,56.529579 321.496887,56.318569 333.295807,61.253262 
	C341.408417,64.646225 346.078125,71.055603 346.362762,80.959038 
	C341.065674,80.959038 335.824310,81.078163 330.598572,80.845856 
	C329.690826,80.805496 328.577637,79.429482 328.021484,78.416618 
	C324.708893,72.383827 317.133972,69.879059 311.408081,73.505241 
	C309.742981,74.559761 308.215240,77.097191 308.145416,79.010361 
	C308.087952,80.585396 309.963104,83.146996 311.533295,83.697136 
	C316.667786,85.496071 322.058533,86.559479 327.342163,87.938644 
	C330.067352,88.649979 332.858704,89.211479 335.475708,90.216721 
	C350.159943,95.857201 352.999023,111.517677 341.322266,122.103943 
	C330.850250,131.597977 305.802155,131.929413 295.145325,122.686981 
	C290.582031,118.729362 287.721069,113.851677 287.184204,106.908211 
	C293.035553,106.908211 298.764801,106.761429 304.471588,107.053154 
	C305.419220,107.101593 306.422394,108.970299 307.137878,110.155960 
	C310.508972,115.742348 315.918030,115.515869 321.287628,115.074989 
	C325.209320,114.752998 328.345551,113.125000 328.828491,108.262764 
z"/>
<path fill="#9784C5" opacity="1.000000" stroke="none" 
	d="
M534.958008,81.915489 
	C536.693420,75.431870 538.490784,69.382599 539.948669,63.252625 
	C540.637390,60.356773 541.826233,59.010887 544.991028,59.154480 
	C550.116394,59.387039 555.259949,59.217087 560.739197,59.217087 
	C560.630798,60.602985 560.748596,61.588928 560.458862,62.435398 
	C553.415894,83.014633 546.271790,103.559563 539.318481,124.168884 
	C538.371948,126.974236 537.205505,128.248199 534.095032,128.071671 
	C528.295715,127.742508 521.047119,129.868378 517.066345,127.117104 
	C513.143372,124.405785 512.392761,116.964012 510.475159,111.518517 
	C505.015167,96.013138 499.661713,80.470184 494.292084,64.933128 
	C493.764587,63.406868 493.414673,61.819260 492.710175,59.278450 
	C499.343353,59.278450 505.419952,59.006065 511.432800,59.503689 
	C512.664856,59.605652 514.163452,62.447983 514.681335,64.270859 
	C518.580383,77.995331 522.259766,91.782127 526.027161,105.544151 
	C526.280396,106.469269 526.691345,107.351219 527.422302,109.304283 
	C530.095764,99.630760 532.488281,90.973747 534.958008,81.915489 
z"/>
<path fill="#938DC8" opacity="1.000000" stroke="none" 
	d="
M388.000336,59.298843 
	C392.292542,61.937435 396.584778,64.576019 401.073944,67.335678 
	C401.073944,61.065365 401.073944,53.893143 401.073944,46.720921 
	C401.073944,35.993805 401.073944,35.993732 411.787628,35.992447 
	C414.574249,35.992111 417.360870,35.992393 420.462158,35.992393 
	C420.462158,66.778946 420.462158,97.011925 420.462158,127.627663 
	C414.078766,127.627663 407.875946,127.627663 401.319550,127.627663 
	C401.171844,124.909004 401.032288,122.340538 400.904846,119.995468 
	C397.576904,122.388634 394.306458,124.740433 390.313477,126.938644 
	C389.060150,122.257584 388.529419,117.730095 388.368378,113.122597 
	C396.540771,110.700150 400.782654,104.768188 401.015625,95.873367 
	C401.346741,83.228905 398.049500,77.709366 387.999268,73.612915 
	C388.000000,68.527786 388.000183,63.913311 388.000336,59.298843 
z"/>
<path fill="#908FC9" opacity="1.000000" stroke="none" 
	d="
M387.998718,113.202599 
	C388.529419,117.730095 389.060150,122.257584 389.971191,126.984993 
	C381.021240,131.671036 369.200378,129.651917 361.843567,122.315514 
	C349.357880,109.864441 348.849915,79.367737 360.885315,66.425919 
	C368.166809,58.596020 377.036346,56.525856 387.603333,59.158478 
	C388.000183,63.913311 388.000000,68.527786 387.609894,73.635330 
	C377.830383,75.806870 373.996490,79.358398 372.362305,88.727051 
	C370.526917,99.249077 374.223938,114.087433 387.998718,113.202599 
z"/>
<path fill="#88A3CF" opacity="1.000000" stroke="none" 
	d="
M72.938988,60.884846 
	C84.044220,54.509789 95.266487,58.084190 102.170784,70.247726 
	C104.070961,68.124138 105.957825,66.015442 108.524231,64.068848 
	C109.841347,67.846169 110.478912,71.461380 111.116478,75.076599 
	C106.393730,78.510765 104.807846,83.166092 104.904205,88.936760 
	C105.112755,101.424728 104.910835,113.919601 104.858360,126.411575 
	C104.857101,126.712082 104.639000,127.011673 104.387779,127.656052 
	C98.623894,127.656052 92.729515,127.656052 86.085785,127.656052 
	C86.085785,123.446976 86.086433,119.347534 86.085648,115.248093 
	C86.083794,105.585846 86.130508,95.923256 86.063812,86.261459 
	C86.007698,78.132133 83.070412,75.032616 74.407951,73.640762 
	C73.651146,69.065895 73.295067,64.975372 72.938988,60.884846 
z"/>
<path fill="#889FCE" opacity="1.000000" stroke="none" 
	d="
M111.498169,75.029282 
	C110.478912,71.461380 109.841347,67.846169 108.833557,63.959126 
	C115.463783,57.103821 123.621902,56.753902 132.123276,59.707191 
	C140.784119,62.715878 145.435822,69.535980 145.740387,78.254311 
	C146.309448,94.543579 145.903961,110.866898 145.903961,127.587891 
	C139.661026,127.587891 133.626404,127.587891 126.935699,127.587891 
	C126.935699,121.052704 126.938652,114.613991 126.934906,108.175270 
	C126.930641,100.845238 127.122726,93.507996 126.862183,86.186966 
	C126.526772,76.762566 120.813293,72.627342 111.498169,75.029282 
z"/>
<path fill="#86A6D0" opacity="1.000000" stroke="none" 
	d="
M72.602798,60.955288 
	C73.295067,64.975372 73.651146,69.065895 74.013321,73.622192 
	C65.694550,76.576134 64.262672,83.252945 64.185829,90.586372 
	C64.075996,101.067039 64.157211,111.549698 64.156853,122.031509 
	C64.156792,123.814049 64.156845,125.596581 64.156845,127.688354 
	C57.678116,127.688354 51.764977,127.688354 45.435936,127.688354 
	C45.435936,105.113625 45.435936,82.584442 45.435936,59.623112 
	C51.396320,59.623112 57.429604,59.623112 63.932465,59.623112 
	C63.932465,62.505421 63.932465,65.247665 63.932465,68.594856 
	C67.078751,65.737381 69.672676,63.381554 72.602798,60.955288 
z"/>
<path fill="#F8F7F4" opacity="1.000000" stroke="none" 
	d="
M448.053528,84.338875 
	C450.936890,75.519371 455.593719,72.216705 463.460693,72.996552 
	C469.614197,73.606552 473.731598,78.203300 474.667969,85.828880 
	C466.060974,85.828880 457.491058,85.839455 448.921600,85.783585 
	C448.630707,85.781693 448.344208,85.111504 448.053528,84.338875 
z"/>
<path fill="#F8F7F4" opacity="1.000000" stroke="none" 
	d="
M173.209412,103.429016 
	C177.769531,98.834969 183.320557,99.097496 188.763260,98.991043 
	C190.895660,98.949333 193.029556,98.984200 195.110672,98.984200 
	C196.812134,104.922745 195.077118,109.476089 190.040054,112.603134 
	C184.937973,115.770538 177.726135,115.754257 174.204727,112.318626 
	C171.710419,109.885109 171.149734,106.916969 173.209412,103.429016 
z"/>
<path fill="#F9F8F4" opacity="1.000000" stroke="none" 
	d="
M388.368408,113.122597 
	C374.223938,114.087433 370.526917,99.249077 372.362305,88.727051 
	C373.996490,79.358398 377.830383,75.806870 387.609344,74.105980 
	C398.049500,77.709366 401.346741,83.228905 401.015625,95.873367 
	C400.782654,104.768188 396.540771,110.700150 388.368408,113.122597 
z"/>
</svg>